import React from 'react'

const Burger = () => {
  return (
      <svg className="yelplogo" xmlns="http://www.w3.org/2000/svg" width="65" height="34" viewBox="0 0 65.24 33.79" aria-labelledby="title">
         <title id="title">yelplogo</title>
         <path fill='#fff' d="M62.66,17.94l-.11,0a3.59,3.59,0,0,0,2.66-3.06,3.77,3.77,0,0,0-.32-2,11.8,11.8,0,0,0-2.91-4,4.17,4.17,0,0,0-2.16-.94,3.51,3.51,0,0,0-3.29,1.69V3.62A3.58,3.58,0,0,0,53,0,16.15,16.15,0,0,0,49.5.57a17.25,17.25,0,0,0-3,1.13A2.87,2.87,0,0,0,46,2a3.66,3.66,0,0,0-1.07,4.8l2.91,5.11a3.45,3.45,0,0,0-3.81.34,4,4,0,0,0-1.34,2v0A6.42,6.42,0,0,0,41,13.07a7,7,0,0,0-3-.69,6.77,6.77,0,0,0-2.29.4,3.79,3.79,0,0,0-4.21.42v-.63A3.88,3.88,0,0,0,28,8.64a3.79,3.79,0,0,0-4.11,3.8v2.38a6.86,6.86,0,0,0-5-2.12,7,7,0,0,0-4.39,1.61,3.8,3.8,0,0,0-2-1.42,3.68,3.68,0,0,0-2-.06,4,4,0,0,0-2.74,2.72l-.11.39-.52-1.07a3.76,3.76,0,0,0-6.73-.13,3.87,3.87,0,0,0-.07,3.49L4,25.67a3.65,3.65,0,0,0-2.18,2.46,3.73,3.73,0,0,0,.55,3.23A4.21,4.21,0,0,0,5.84,33h.21a5.34,5.34,0,0,0,5.48-3.75c.31-1,.67-2.14,1-3.33a4.54,4.54,0,0,0,.21.45,6.5,6.5,0,0,0,6.08,3.52,7.44,7.44,0,0,0,5.5-2,3.77,3.77,0,0,0,3.3,2A3.67,3.67,0,0,0,30,29v.87a3.84,3.84,0,1,0,7.68.12,6.87,6.87,0,0,0,5-2,6.73,6.73,0,0,0,.94-1.23,3.26,3.26,0,0,0,1.58.41,3.33,3.33,0,0,0,1.31-.27,3.76,3.76,0,0,0,.79.75,11.88,11.88,0,0,0,4.77,1.95,3,3,0,0,0,.59.05,3.57,3.57,0,0,0,3.57-3.49v-.13l.06.11a3.54,3.54,0,0,0,5.37.82,12,12,0,0,0,3.06-4,3.6,3.6,0,0,0-2.08-5.08Z"/>

         <path fill='#050505' d="M45.06,24h0c.13,0,.24,0,.24-.18s-.1-.14-.2-.19h-.09V24Zm0-.37h.1c.21-.06.31,0,.31.2s-.1.22-.23.24l.25.29h-.05L45.21,24h-.15v.36h0v-.73Zm.06,1a.65.65,0,1,0-.64-.65.63.63,0,0,0,.64.65Zm0-1.41a.76.76,0,1,1-.76.76.75.75,0,0,1,.76-.76Z"/>
         <path fill-rule='evenodd' fill='#050505' d="M28.93,26.54a1.44,1.44,0,0,1-2.07,1.31,1.38,1.38,0,0,1-.79-1.27V12.05a1.39,1.39,0,0,1,.79-1.28,1.44,1.44,0,0,1,2.07,1.31V26.54Z"/>
         <path fill='#050505' d="M16.57,19.8a2.14,2.14,0,1,1,4.28,0c0,.1-.05.16-.11.16h-4c-.07,0-.13-.07-.12-.19Zm.59,2.37h5a1.46,1.46,0,0,0,1.32-1.53h0v-.07c-.24-5-3.42-5.74-4.86-5.74s-4.89.89-4.89,6.47c0,2.1.47,6.1,4.82,6.1,3.75,0,4.6-2.2,4.6-2.76a1.17,1.17,0,0,0-1.45-1.26c-.63.21-1.48,1.47-2.86,1.47a2.18,2.18,0,0,1-2.22-2.22c0-.32.16-.44.58-.46Z"/>
         <path fill='#050505' d="M6,25.81,1.81,17a1.42,1.42,0,0,1,.64-1.89,1.39,1.39,0,0,1,1.86.65l3.28,6.81L9.6,16a1.4,1.4,0,0,1,1.75-.93,1.41,1.41,0,0,1,.91,1.77S10,24.33,8.63,28.65c-.45,1.43-1.63,2.14-3.4,2.09S3.21,29.65,3.4,29a1.35,1.35,0,0,1,1.45-1C6.44,28,6.64,27,6,25.81Z"/>
         <path fill='#050505' d="M39.69,21.74c0,1.09,0,3.07-2,3.07s-2-2-2-3.07v-1c0-1.1,0-3.07,2-3.07s2,2,2,3.07v1Zm3.25-1.19c0-1.9-.23-4.52-2.61-5.66a4.58,4.58,0,0,0-4.26.11c-.25.15-.5.31-.73.48a1.44,1.44,0,0,0-2-1,1.42,1.42,0,0,0-.86,1.33V30.32a1.4,1.4,0,0,0,.79,1.28,1.45,1.45,0,0,0,2.08-1.31v-3.8a3.59,3.59,0,0,0,2.49,1.24c5.45.14,5.09-5.86,5.06-7.18Z"/>
         <path fill-rule='evenodd' fill='#d32323' d="M46.54,14.09l4.73,2.34a1.1,1.1,0,0,1-.21,2.05L46,19.77a1.08,1.08,0,0,1-1.34-.94A9.61,9.61,0,0,1,45,14.72a1.08,1.08,0,0,1,1.5-.63Z"/>
         <path fill-rule='evenodd' fill='#d32323' d="M48.43,24,52,20a1.08,1.08,0,0,1,1.89.77l-.18,5.33a1.09,1.09,0,0,1-1.26,1,9.25,9.25,0,0,1-3.78-1.55A1.11,1.11,0,0,1,48.43,24Z"/>
         <path fill-rule='evenodd' fill='#d32323' d="M56.78,18.69l5,1.64a1.11,1.11,0,0,1,.64,1.52,9.58,9.58,0,0,1-2.5,3.25,1.07,1.07,0,0,1-1.61-.26l-2.79-4.53a1.09,1.09,0,0,1,1.25-1.62Z"/>
         <path fill-rule='evenodd' fill='#d32323' d="M61.87,15.45l-5.06,1.47a1.1,1.1,0,0,1-1.2-1.67l3-4.42a1.08,1.08,0,0,1,1.61-.22A9.53,9.53,0,0,1,62.57,14a1.11,1.11,0,0,1-.7,1.5Z"/>
         <path fill-rule='evenodd' fill='#d32323' d="M50.13,3a14.06,14.06,0,0,0-2.59,1,1.11,1.11,0,0,0-.48,1.55L52,14.2a1.08,1.08,0,0,0,2-.55v-10a1.09,1.09,0,0,0-1.18-1.09A14.28,14.28,0,0,0,50.13,3Z"/>
       </svg>
    )
  }



export default Burger


import <svg xmlns="http://www.w3.org/2000/svg" viewBox="0 0 126 126"><defs><style>.cls-1{fill:none;stroke:#333;stroke-miterlimit:10;}.cls-2{fill:#fff;}.cls-3{fill:#333;}</style></defs><title>Burger Social</title><g id="Burger"><path class="cls-1" d="M108.05,57.75c-3.26,7.9-20.34,10.8-32.52,11.82L64.86,71.84,47,78.28,29.29,65.65c-5.36-1.81-9.65-4.35-11.11-7.9-.49,1.65-.75,2.09-.55,7.54.4,14.66,43,15,45.56,14.92,3.75.13,45-.5,45.41-14.92C108.8,59.84,108.53,59.4,108.05,57.75Z"/><path class="cls-1" d="M108.42,69.09C102.48,80.45,66.7,81,63.19,80.86c-2.29.08-37-.71-45.07-10.94a20.34,20.34,0,0,0-.5,6A2.22,2.22,0,0,0,17.85,77c1,1.84,3.17,3.33,6.1,4.54,1.79-.74,3-2.66,4.81-2.4,2.4.33,3,4.15,5.43,4.42s3.59-3.07,5.79-2.87,3,3.76,5.52,3.93,3.55-3.06,6.22-3,4.31,3.77,7.57,3.82,4.6-3.57,7.71-3.62,3.94,3.18,7.89,3.11c4.34-.08,7.53-4.1,10.64-4.2,2.78-.1,2.86,3,4.67,2.85s2.7-3.67,5.3-4c2.19-.33,3.77,1.85,6.13,2.25,3.25-1.26,5.93-2.74,7-4.71a4.31,4.31,0,0,0,.35-.85C109.15,75.93,108.55,70,108.42,69.09Z"/><path class="cls-1" d="M108.5,77.4c-5,9.39-41.64,9.82-45.18,9.73C60.91,87.19,23,87,18,77.41c-.48,1.29-.26,4.71-.3,9-.13,11.54,43.05,12.78,45.62,12.7,3.78.1,45.62-1,45.62-12.4C108.91,82.28,109,78.7,108.5,77.4Z"/><path class="cls-1" d="M108.81,50.63a18.89,18.89,0,0,1-.1,3.18C108.31,65.25,67,65.74,63.24,65.64c-2.56.08-45.23-.21-45.63-11.83a15.57,15.57,0,0,1-.05-3.23c0-12.26,19.89-20.91,44.62-20.91h2C88.86,29.67,108.81,38.37,108.81,50.63Z"/><path class="cls-2" d="M23.84,46.82a4.8,4.8,0,0,1-.58,0,3.3,3.3,0,0,1,.58-.05,3.13,3.13,0,0,1,.58.05A4.52,4.52,0,0,1,23.84,46.82Z"/><path class="cls-3" d="M23.84,46.23c-.87,0-1.57.25-1.57.55s.7.54,1.57.54,1.58-.24,1.58-.54-.71-.55-1.58-.55Z"/><path class="cls-2" d="M34.84,37.57a4.66,4.66,0,0,1-.58,0,3.3,3.3,0,0,1,.58,0,3.37,3.37,0,0,1,.58,0A4.8,4.8,0,0,1,34.84,37.57Z"/><path class="cls-3" d="M34.84,37c-.87,0-1.58.24-1.58.54s.71.54,1.58.54,1.57-.24,1.57-.54-.7-.54-1.57-.54Z"/><path class="cls-2" d="M36.8,51.75a3.37,3.37,0,0,1-.58,0,4.8,4.8,0,0,1,.58,0,4.66,4.66,0,0,1,.58,0A3.3,3.3,0,0,1,36.8,51.75Z"/><path class="cls-3" d="M36.8,51.17c-.87,0-1.58.24-1.58.54s.71.55,1.58.55,1.58-.25,1.58-.55-.71-.54-1.58-.54Z"/><path class="cls-2" d="M49.27,39.73a4.66,4.66,0,0,1-.58,0,3.21,3.21,0,0,1,.58,0,3.3,3.3,0,0,1,.58,0A4.8,4.8,0,0,1,49.27,39.73Z"/><path class="cls-3" d="M49.27,39.14c-.87,0-1.58.25-1.58.55s.71.54,1.58.54,1.58-.24,1.58-.54-.71-.55-1.58-.55Z"/><path class="cls-2" d="M39.45,44.15a4.8,4.8,0,0,1-.58,0,3.39,3.39,0,0,1,1.16,0A4.66,4.66,0,0,1,39.45,44.15Z"/><path class="cls-3" d="M39.45,43.56c-.87,0-1.57.25-1.57.55s.7.54,1.57.54S41,44.41,41,44.11s-.71-.55-1.58-.55Z"/><path class="cls-2" d="M59.72,34.64a3.37,3.37,0,0,1-.58,0,3.37,3.37,0,0,1,.58,0,3.42,3.42,0,0,1,.59,0A3.42,3.42,0,0,1,59.72,34.64Z"/><path class="cls-3" d="M59.72,34.06c-.87,0-1.57.24-1.57.54s.7.54,1.57.54,1.58-.24,1.58-.54-.71-.54-1.58-.54Z"/><path class="cls-2" d="M59.28,45a3.37,3.37,0,0,1-.58,0,3.39,3.39,0,0,1,1.16,0A3.3,3.3,0,0,1,59.28,45Z"/><path class="cls-3" d="M59.28,44.38c-.87,0-1.58.25-1.58.55s.71.54,1.58.54,1.58-.24,1.58-.54-.71-.55-1.58-.55Z"/><ellipse class="cls-2" cx="52.26" cy="52.76" rx="0.58" ry="0.04"/><path class="cls-3" d="M52.26,52.22c-.87,0-1.57.24-1.57.54s.7.54,1.57.54,1.58-.24,1.58-.54-.71-.54-1.58-.54Z"/><path class="cls-2" d="M70.42,52.63a3.21,3.21,0,0,1-.58-.05,4.8,4.8,0,0,1,.58,0,4.66,4.66,0,0,1,.58,0A3.21,3.21,0,0,1,70.42,52.63Z"/><path class="cls-3" d="M70.42,52c-.87,0-1.57.24-1.57.55s.7.54,1.57.54S72,52.89,72,52.59,71.29,52,70.42,52Z"/><path class="cls-2" d="M72.39,40.19a3.3,3.3,0,0,1-.58,0,3.3,3.3,0,0,1,.58,0,3.37,3.37,0,0,1,.58,0A3.37,3.37,0,0,1,72.39,40.19Z"/><path class="cls-3" d="M72.39,39.61c-.87,0-1.58.24-1.58.54s.71.54,1.58.54S74,40.45,74,40.15s-.7-.54-1.57-.54Z"/><path class="cls-2" d="M80.78,34.18a4.8,4.8,0,0,1-.58,0,3.3,3.3,0,0,1,.58,0,3.21,3.21,0,0,1,.58,0A4.66,4.66,0,0,1,80.78,34.18Z"/><path class="cls-3" d="M80.78,33.59c-.87,0-1.58.25-1.58.55s.71.54,1.58.54,1.58-.24,1.58-.54-.71-.55-1.58-.55Z"/><path class="cls-2" d="M84.39,43.94a3.37,3.37,0,0,1-.58,0,4.8,4.8,0,0,1,.58,0,4.66,4.66,0,0,1,.58,0A3.3,3.3,0,0,1,84.39,43.94Z"/><path class="cls-3" d="M84.39,43.36c-.87,0-1.57.24-1.57.54s.7.54,1.57.54S86,44.2,86,43.9s-.71-.54-1.58-.54Z"/><path class="cls-2" d="M102.68,46.39a4.66,4.66,0,0,1-.58,0,3.39,3.39,0,0,1,1.16,0A4.66,4.66,0,0,1,102.68,46.39Z"/><path class="cls-3" d="M102.68,45.8c-.87,0-1.57.25-1.57.55s.7.54,1.57.54,1.58-.24,1.58-.54-.71-.55-1.58-.55Z"/><path class="cls-2" d="M92.2,51a3.21,3.21,0,0,1-.58,0,4.23,4.23,0,0,1,1.16,0A3.21,3.21,0,0,1,92.2,51Z"/><path class="cls-3" d="M92.2,50.45c-.87,0-1.58.24-1.58.54s.71.55,1.58.55,1.58-.25,1.58-.55-.71-.54-1.58-.54Z"/><path class="cls-2" d="M93.54,38.19a4.8,4.8,0,0,1-.58,0,3.3,3.3,0,0,1,.58,0,3.21,3.21,0,0,1,.58,0A4.66,4.66,0,0,1,93.54,38.19Z"/><path class="cls-3" d="M93.54,37.6c-.87,0-1.57.25-1.57.55s.7.54,1.57.54,1.58-.24,1.58-.54-.71-.55-1.58-.55Z"/></g></svg>
