<svg xmlns="http://www.w3.org/2000/svg" viewBox="0 0 126 126"><defs><style>.cls-1{fill:none;stroke:#333;stroke-miterlimit:10;}.cls-2{fill:#333;}</style></defs><title>Chinese Social</title><g id="Chinese"><path class="cls-1" d="M76,46.21c-20.5,0-37.13-1.93-37.34-4.31C38.85,59,55.48,72.82,76,72.82S113.12,59,113.33,41.9C113.12,44.28,96.48,46.21,76,46.21Z"/><path class="cls-1" d="M76,37.51c-20.53,0-37.19,1.92-37.35,4.31,0,0,0,.06,0,.08.21,2.38,16.84,4.31,37.34,4.31s37.14-1.93,37.35-4.31v-.08C113.17,39.43,96.52,37.51,76,37.51Z"/><path class="cls-1" d="M61.62,101,22.27,67.43a.52.52,0,0,0-.69.77l37.81,35.28,0,0A1.68,1.68,0,0,0,61.62,101Z"/><path class="cls-1" d="M54.63,106.61,19.05,69.08a.52.52,0,0,0-.76.7l33.86,39.07.05.06a1.67,1.67,0,0,0,2.43-2.3Z"/><path class="cls-2" d="M25.49,72.67l12.2,11.39c-1,.24-2,.47-3,.68L23.58,73c.64-.09,1.27-.21,1.91-.32m.32-1.07-.49.09-.17,0c-.57.1-1.14.2-1.72.28l-1.9.29,1.32,1.39L34,85.43l.38.4.55-.11c.91-.19,1.87-.41,3-.68l1.8-.44-1.35-1.27L26.17,71.94l-.36-.34Z"/><path class="cls-2" d="M43.89,67l9.36,11.67A81.46,81.46,0,0,1,41.52,83l-12.9-11a72.51,72.51,0,0,0,15.27-5m.29-1.24-.71.33a71.87,71.87,0,0,1-15.06,4.94l-2,.42L28,72.81l12.9,11,.41.35.51-.15a83.14,83.14,0,0,0,11.88-4.38l1.17-.53-.81-1L44.67,66.41l-.49-.61Z"/><path class="cls-2" d="M20.62,73.42,31,85.45a104.72,104.72,0,0,1-17.38,1.42H12.54L9,74h1a90.87,90.87,0,0,0,10.66-.62m.41-1-.53.06A91.26,91.26,0,0,1,10,73H7.68L8,74.3l1.82,6.59,1.73,6.24.2.73h1.88a106.23,106.23,0,0,0,17.55-1.43l1.75-.3L31.8,84.8l-10.43-12-.34-.4Z"/><path class="cls-1" d="M65.1,14.61c-1.66,1.3-3.41,3.05-3.09,4.7.37,1.86,3.05,2.11,3.25,3.9.24,2.13-3.39,3.3-3.08,5.36.24,1.6,2.56,1.76,2.92,3.41s-1.25,3.2-2.92,4.54"/><path class="cls-1" d="M77.46,14.07c-1.66,1.3-3.41,3.05-3.09,4.71.37,1.85,3,2.1,3.25,3.89.24,2.14-3.39,3.3-3.08,5.36.24,1.6,2.56,1.76,2.92,3.41S76.21,34.65,74.54,36"/><path class="cls-1" d="M89.82,14.88c-1.66,1.3-3.41,3-3.09,4.7.37,1.86,3,2.11,3.25,3.9.24,2.13-3.39,3.3-3.08,5.36.24,1.6,2.56,1.76,2.92,3.41s-1.26,3.2-2.92,4.54"/></g></svg>