<svg xmlns="http://www.w3.org/2000/svg" xmlns:xlink="http://www.w3.org/1999/xlink" viewBox="0 0 126 126"><defs><style>.cls-1,.cls-13,.cls-14{fill:none;}.cls-2{fill:#1d1d1b;}.cls-3{clip-path:url(#clip-path);}.cls-10,.cls-11,.cls-12,.cls-13,.cls-14,.cls-4,.cls-5,.cls-6,.cls-7,.cls-9{stroke:#000;stroke-miterlimit:10;}.cls-10,.cls-11,.cls-12,.cls-4,.cls-5,.cls-6,.cls-7,.cls-9{stroke-width:0.5px;}.cls-4{fill:url(#_6_dpi_40_);}.cls-5{fill:url(#_6_dpi_40_3);}.cls-6{fill:url(#_6_dpi_40_5);}.cls-7{fill:url(#_6_dpi_40_7);}.cls-8{clip-path:url(#clip-path-2);}.cls-9{fill:url(#_6_dpi_40_9);}.cls-10{fill:url(#_6_dpi_40_11);}.cls-11{fill:url(#_6_dpi_40_13);}.cls-12{fill:url(#_6_dpi_40_15);}.cls-13{stroke-width:0.75px;}.cls-14{stroke-linecap:round;}</style><clipPath id="clip-path"><rect class="cls-1" x="21.78" y="29.87" width="76.97" height="11" transform="translate(129.33 45.89) rotate(158.25)"/></clipPath><pattern id="_6_dpi_40_" data-name="6 dpi 40%" width="48" height="48" patternTransform="translate(26.48 72.02) rotate(128.25) scale(0.25)" patternUnits="userSpaceOnUse" viewBox="0 0 48 48"><rect class="cls-1" width="48" height="48"/><path class="cls-2" d="M24,52.8A4.8,4.8,0,1,0,19.2,48,4.8,4.8,0,0,0,24,52.8Z"/><path class="cls-2" d="M48,52.8A4.8,4.8,0,1,0,43.2,48,4.8,4.8,0,0,0,48,52.8Z"/><path class="cls-2" d="M24,28.8A4.8,4.8,0,1,0,19.2,24,4.8,4.8,0,0,0,24,28.8Z"/><path class="cls-2" d="M48,28.8A4.8,4.8,0,1,0,43.2,24,4.8,4.8,0,0,0,48,28.8Z"/><path class="cls-2" d="M36,40.8A4.8,4.8,0,1,0,31.2,36,4.8,4.8,0,0,0,36,40.8Z"/><path class="cls-2" d="M12,40.8A4.8,4.8,0,1,0,7.2,36,4.8,4.8,0,0,0,12,40.8Z"/><path class="cls-2" d="M36,16.8A4.8,4.8,0,1,0,31.2,12,4.8,4.8,0,0,0,36,16.8Z"/><path class="cls-2" d="M12,16.8A4.8,4.8,0,1,0,7.2,12,4.8,4.8,0,0,0,12,16.8Z"/><path class="cls-2" d="M0,52.8A4.8,4.8,0,0,0,4.8,48,4.8,4.8,0,0,0,0,43.2a4.8,4.8,0,0,0,0,9.6Z"/><path class="cls-2" d="M0,28.8A4.8,4.8,0,0,0,4.8,24,4.8,4.8,0,0,0,0,19.2a4.8,4.8,0,0,0,0,9.6Z"/><path class="cls-2" d="M24,4.8A4.8,4.8,0,0,0,28.8,0a4.8,4.8,0,0,0-9.6,0A4.8,4.8,0,0,0,24,4.8Z"/><path class="cls-2" d="M48,4.8A4.8,4.8,0,0,0,52.8,0a4.8,4.8,0,0,0-9.6,0A4.8,4.8,0,0,0,48,4.8Z"/><path class="cls-2" d="M0,4.8A4.8,4.8,0,0,0,4.8,0,4.8,4.8,0,0,0,0-4.8,4.8,4.8,0,0,0-4.8,0,4.8,4.8,0,0,0,0,4.8Z"/></pattern><pattern id="_6_dpi_40_3" data-name="6 dpi 40%" width="48" height="48" patternTransform="translate(40.16 54.66) rotate(128.25) scale(0.25)" patternUnits="userSpaceOnUse" viewBox="0 0 48 48"><rect class="cls-1" width="48" height="48"/><path class="cls-2" d="M24,52.8A4.8,4.8,0,1,0,19.2,48,4.8,4.8,0,0,0,24,52.8Z"/><path class="cls-2" d="M48,52.8A4.8,4.8,0,1,0,43.2,48,4.8,4.8,0,0,0,48,52.8Z"/><path class="cls-2" d="M24,28.8A4.8,4.8,0,1,0,19.2,24,4.8,4.8,0,0,0,24,28.8Z"/><path class="cls-2" d="M48,28.8A4.8,4.8,0,1,0,43.2,24,4.8,4.8,0,0,0,48,28.8Z"/><path class="cls-2" d="M36,40.8A4.8,4.8,0,1,0,31.2,36,4.8,4.8,0,0,0,36,40.8Z"/><path class="cls-2" d="M12,40.8A4.8,4.8,0,1,0,7.2,36,4.8,4.8,0,0,0,12,40.8Z"/><path class="cls-2" d="M36,16.8A4.8,4.8,0,1,0,31.2,12,4.8,4.8,0,0,0,36,16.8Z"/><path class="cls-2" d="M12,16.8A4.8,4.8,0,1,0,7.2,12,4.8,4.8,0,0,0,12,16.8Z"/><path class="cls-2" d="M0,52.8A4.8,4.8,0,0,0,4.8,48,4.8,4.8,0,0,0,0,43.2a4.8,4.8,0,0,0,0,9.6Z"/><path class="cls-2" d="M0,28.8A4.8,4.8,0,0,0,4.8,24,4.8,4.8,0,0,0,0,19.2a4.8,4.8,0,0,0,0,9.6Z"/><path class="cls-2" d="M24,4.8A4.8,4.8,0,0,0,28.8,0a4.8,4.8,0,0,0-9.6,0A4.8,4.8,0,0,0,24,4.8Z"/><path class="cls-2" d="M48,4.8A4.8,4.8,0,0,0,52.8,0a4.8,4.8,0,0,0-9.6,0A4.8,4.8,0,0,0,48,4.8Z"/><path class="cls-2" d="M0,4.8A4.8,4.8,0,0,0,4.8,0,4.8,4.8,0,0,0,0-4.8,4.8,4.8,0,0,0-4.8,0,4.8,4.8,0,0,0,0,4.8Z"/></pattern><pattern id="_6_dpi_40_5" data-name="6 dpi 40%" width="48" height="48" patternTransform="translate(53.85 37.29) rotate(128.25) scale(0.25)" patternUnits="userSpaceOnUse" viewBox="0 0 48 48"><rect class="cls-1" width="48" height="48"/><path class="cls-2" d="M24,52.8A4.8,4.8,0,1,0,19.2,48,4.8,4.8,0,0,0,24,52.8Z"/><path class="cls-2" d="M48,52.8A4.8,4.8,0,1,0,43.2,48,4.8,4.8,0,0,0,48,52.8Z"/><path class="cls-2" d="M24,28.8A4.8,4.8,0,1,0,19.2,24,4.8,4.8,0,0,0,24,28.8Z"/><path class="cls-2" d="M48,28.8A4.8,4.8,0,1,0,43.2,24,4.8,4.8,0,0,0,48,28.8Z"/><path class="cls-2" d="M36,40.8A4.8,4.8,0,1,0,31.2,36,4.8,4.8,0,0,0,36,40.8Z"/><path class="cls-2" d="M12,40.8A4.8,4.8,0,1,0,7.2,36,4.8,4.8,0,0,0,12,40.8Z"/><path class="cls-2" d="M36,16.8A4.8,4.8,0,1,0,31.2,12,4.8,4.8,0,0,0,36,16.8Z"/><path class="cls-2" d="M12,16.8A4.8,4.8,0,1,0,7.2,12,4.8,4.8,0,0,0,12,16.8Z"/><path class="cls-2" d="M0,52.8A4.8,4.8,0,0,0,4.8,48,4.8,4.8,0,0,0,0,43.2a4.8,4.8,0,0,0,0,9.6Z"/><path class="cls-2" d="M0,28.8A4.8,4.8,0,0,0,4.8,24,4.8,4.8,0,0,0,0,19.2a4.8,4.8,0,0,0,0,9.6Z"/><path class="cls-2" d="M24,4.8A4.8,4.8,0,0,0,28.8,0a4.8,4.8,0,0,0-9.6,0A4.8,4.8,0,0,0,24,4.8Z"/><path class="cls-2" d="M48,4.8A4.8,4.8,0,0,0,52.8,0a4.8,4.8,0,0,0-9.6,0A4.8,4.8,0,0,0,48,4.8Z"/><path class="cls-2" d="M0,4.8A4.8,4.8,0,0,0,4.8,0,4.8,4.8,0,0,0,0-4.8,4.8,4.8,0,0,0-4.8,0,4.8,4.8,0,0,0,0,4.8Z"/></pattern><pattern id="_6_dpi_40_7" data-name="6 dpi 40%" width="48" height="48" patternTransform="translate(67.54 19.93) rotate(128.25) scale(0.25)" patternUnits="userSpaceOnUse" viewBox="0 0 48 48"><rect class="cls-1" width="48" height="48"/><path class="cls-2" d="M24,52.8A4.8,4.8,0,1,0,19.2,48,4.8,4.8,0,0,0,24,52.8Z"/><path class="cls-2" d="M48,52.8A4.8,4.8,0,1,0,43.2,48,4.8,4.8,0,0,0,48,52.8Z"/><path class="cls-2" d="M24,28.8A4.8,4.8,0,1,0,19.2,24,4.8,4.8,0,0,0,24,28.8Z"/><path class="cls-2" d="M48,28.8A4.8,4.8,0,1,0,43.2,24,4.8,4.8,0,0,0,48,28.8Z"/><path class="cls-2" d="M36,40.8A4.8,4.8,0,1,0,31.2,36,4.8,4.8,0,0,0,36,40.8Z"/><path class="cls-2" d="M12,40.8A4.8,4.8,0,1,0,7.2,36,4.8,4.8,0,0,0,12,40.8Z"/><path class="cls-2" d="M36,16.8A4.8,4.8,0,1,0,31.2,12,4.8,4.8,0,0,0,36,16.8Z"/><path class="cls-2" d="M12,16.8A4.8,4.8,0,1,0,7.2,12,4.8,4.8,0,0,0,12,16.8Z"/><path class="cls-2" d="M0,52.8A4.8,4.8,0,0,0,4.8,48,4.8,4.8,0,0,0,0,43.2a4.8,4.8,0,0,0,0,9.6Z"/><path class="cls-2" d="M0,28.8A4.8,4.8,0,0,0,4.8,24,4.8,4.8,0,0,0,0,19.2a4.8,4.8,0,0,0,0,9.6Z"/><path class="cls-2" d="M24,4.8A4.8,4.8,0,0,0,28.8,0a4.8,4.8,0,0,0-9.6,0A4.8,4.8,0,0,0,24,4.8Z"/><path class="cls-2" d="M48,4.8A4.8,4.8,0,0,0,52.8,0a4.8,4.8,0,0,0-9.6,0A4.8,4.8,0,0,0,48,4.8Z"/><path class="cls-2" d="M0,4.8A4.8,4.8,0,0,0,4.8,0,4.8,4.8,0,0,0,0-4.8,4.8,4.8,0,0,0-4.8,0,4.8,4.8,0,0,0,0,4.8Z"/></pattern><clipPath id="clip-path-2"><rect class="cls-1" x="26.55" y="54.73" width="76.97" height="11"/></clipPath><pattern id="_6_dpi_40_9" data-name="6 dpi 40%" width="48" height="48" patternTransform="translate(39.67 -15.25) rotate(-30) scale(0.25)" patternUnits="userSpaceOnUse" viewBox="0 0 48 48"><rect class="cls-1" width="48" height="48"/><path class="cls-2" d="M24,52.8A4.8,4.8,0,1,0,19.2,48,4.8,4.8,0,0,0,24,52.8Z"/><path class="cls-2" d="M48,52.8A4.8,4.8,0,1,0,43.2,48,4.8,4.8,0,0,0,48,52.8Z"/><path class="cls-2" d="M24,28.8A4.8,4.8,0,1,0,19.2,24,4.8,4.8,0,0,0,24,28.8Z"/><path class="cls-2" d="M48,28.8A4.8,4.8,0,1,0,43.2,24,4.8,4.8,0,0,0,48,28.8Z"/><path class="cls-2" d="M36,40.8A4.8,4.8,0,1,0,31.2,36,4.8,4.8,0,0,0,36,40.8Z"/><path class="cls-2" d="M12,40.8A4.8,4.8,0,1,0,7.2,36,4.8,4.8,0,0,0,12,40.8Z"/><path class="cls-2" d="M36,16.8A4.8,4.8,0,1,0,31.2,12,4.8,4.8,0,0,0,36,16.8Z"/><path class="cls-2" d="M12,16.8A4.8,4.8,0,1,0,7.2,12,4.8,4.8,0,0,0,12,16.8Z"/><path class="cls-2" d="M0,52.8A4.8,4.8,0,0,0,4.8,48,4.8,4.8,0,0,0,0,43.2a4.8,4.8,0,0,0,0,9.6Z"/><path class="cls-2" d="M0,28.8A4.8,4.8,0,0,0,4.8,24,4.8,4.8,0,0,0,0,19.2a4.8,4.8,0,0,0,0,9.6Z"/><path class="cls-2" d="M24,4.8A4.8,4.8,0,0,0,28.8,0a4.8,4.8,0,0,0-9.6,0A4.8,4.8,0,0,0,24,4.8Z"/><path class="cls-2" d="M48,4.8A4.8,4.8,0,0,0,52.8,0a4.8,4.8,0,0,0-9.6,0A4.8,4.8,0,0,0,48,4.8Z"/><path class="cls-2" d="M0,4.8A4.8,4.8,0,0,0,4.8,0,4.8,4.8,0,0,0,0-4.8,4.8,4.8,0,0,0-4.8,0,4.8,4.8,0,0,0,0,4.8Z"/></pattern><pattern id="_6_dpi_40_11" data-name="6 dpi 40%" width="48" height="48" patternTransform="translate(20.52 -4.19) rotate(-30) scale(0.25)" patternUnits="userSpaceOnUse" viewBox="0 0 48 48"><rect class="cls-1" width="48" height="48"/><path class="cls-2" d="M24,52.8A4.8,4.8,0,1,0,19.2,48,4.8,4.8,0,0,0,24,52.8Z"/><path class="cls-2" d="M48,52.8A4.8,4.8,0,1,0,43.2,48,4.8,4.8,0,0,0,48,52.8Z"/><path class="cls-2" d="M24,28.8A4.8,4.8,0,1,0,19.2,24,4.8,4.8,0,0,0,24,28.8Z"/><path class="cls-2" d="M48,28.8A4.8,4.8,0,1,0,43.2,24,4.8,4.8,0,0,0,48,28.8Z"/><path class="cls-2" d="M36,40.8A4.8,4.8,0,1,0,31.2,36,4.8,4.8,0,0,0,36,40.8Z"/><path class="cls-2" d="M12,40.8A4.8,4.8,0,1,0,7.2,36,4.8,4.8,0,0,0,12,40.8Z"/><path class="cls-2" d="M36,16.8A4.8,4.8,0,1,0,31.2,12,4.8,4.8,0,0,0,36,16.8Z"/><path class="cls-2" d="M12,16.8A4.8,4.8,0,1,0,7.2,12,4.8,4.8,0,0,0,12,16.8Z"/><path class="cls-2" d="M0,52.8A4.8,4.8,0,0,0,4.8,48,4.8,4.8,0,0,0,0,43.2a4.8,4.8,0,0,0,0,9.6Z"/><path class="cls-2" d="M0,28.8A4.8,4.8,0,0,0,4.8,24,4.8,4.8,0,0,0,0,19.2a4.8,4.8,0,0,0,0,9.6Z"/><path class="cls-2" d="M24,4.8A4.8,4.8,0,0,0,28.8,0a4.8,4.8,0,0,0-9.6,0A4.8,4.8,0,0,0,24,4.8Z"/><path class="cls-2" d="M48,4.8A4.8,4.8,0,0,0,52.8,0a4.8,4.8,0,0,0-9.6,0A4.8,4.8,0,0,0,48,4.8Z"/><path class="cls-2" d="M0,4.8A4.8,4.8,0,0,0,4.8,0,4.8,4.8,0,0,0,0-4.8,4.8,4.8,0,0,0-4.8,0,4.8,4.8,0,0,0,0,4.8Z"/></pattern><pattern id="_6_dpi_40_13" data-name="6 dpi 40%" width="48" height="48" patternTransform="translate(1.37 6.86) rotate(-30) scale(0.25)" patternUnits="userSpaceOnUse" viewBox="0 0 48 48"><rect class="cls-1" width="48" height="48"/><path class="cls-2" d="M24,52.8A4.8,4.8,0,1,0,19.2,48,4.8,4.8,0,0,0,24,52.8Z"/><path class="cls-2" d="M48,52.8A4.8,4.8,0,1,0,43.2,48,4.8,4.8,0,0,0,48,52.8Z"/><path class="cls-2" d="M24,28.8A4.8,4.8,0,1,0,19.2,24,4.8,4.8,0,0,0,24,28.8Z"/><path class="cls-2" d="M48,28.8A4.8,4.8,0,1,0,43.2,24,4.8,4.8,0,0,0,48,28.8Z"/><path class="cls-2" d="M36,40.8A4.8,4.8,0,1,0,31.2,36,4.8,4.8,0,0,0,36,40.8Z"/><path class="cls-2" d="M12,40.8A4.8,4.8,0,1,0,7.2,36,4.8,4.8,0,0,0,12,40.8Z"/><path class="cls-2" d="M36,16.8A4.8,4.8,0,1,0,31.2,12,4.8,4.8,0,0,0,36,16.8Z"/><path class="cls-2" d="M12,16.8A4.8,4.8,0,1,0,7.2,12,4.8,4.8,0,0,0,12,16.8Z"/><path class="cls-2" d="M0,52.8A4.8,4.8,0,0,0,4.8,48,4.8,4.8,0,0,0,0,43.2a4.8,4.8,0,0,0,0,9.6Z"/><path class="cls-2" d="M0,28.8A4.8,4.8,0,0,0,4.8,24,4.8,4.8,0,0,0,0,19.2a4.8,4.8,0,0,0,0,9.6Z"/><path class="cls-2" d="M24,4.8A4.8,4.8,0,0,0,28.8,0a4.8,4.8,0,0,0-9.6,0A4.8,4.8,0,0,0,24,4.8Z"/><path class="cls-2" d="M48,4.8A4.8,4.8,0,0,0,52.8,0a4.8,4.8,0,0,0-9.6,0A4.8,4.8,0,0,0,48,4.8Z"/><path class="cls-2" d="M0,4.8A4.8,4.8,0,0,0,4.8,0,4.8,4.8,0,0,0,0-4.8,4.8,4.8,0,0,0-4.8,0,4.8,4.8,0,0,0,0,4.8Z"/></pattern><pattern id="_6_dpi_40_15" data-name="6 dpi 40%" width="48" height="48" patternTransform="translate(-17.78 17.92) rotate(-30) scale(0.25)" patternUnits="userSpaceOnUse" viewBox="0 0 48 48"><rect class="cls-1" width="48" height="48"/><path class="cls-2" d="M24,52.8A4.8,4.8,0,1,0,19.2,48,4.8,4.8,0,0,0,24,52.8Z"/><path class="cls-2" d="M48,52.8A4.8,4.8,0,1,0,43.2,48,4.8,4.8,0,0,0,48,52.8Z"/><path class="cls-2" d="M24,28.8A4.8,4.8,0,1,0,19.2,24,4.8,4.8,0,0,0,24,28.8Z"/><path class="cls-2" d="M48,28.8A4.8,4.8,0,1,0,43.2,24,4.8,4.8,0,0,0,48,28.8Z"/><path class="cls-2" d="M36,40.8A4.8,4.8,0,1,0,31.2,36,4.8,4.8,0,0,0,36,40.8Z"/><path class="cls-2" d="M12,40.8A4.8,4.8,0,1,0,7.2,36,4.8,4.8,0,0,0,12,40.8Z"/><path class="cls-2" d="M36,16.8A4.8,4.8,0,1,0,31.2,12,4.8,4.8,0,0,0,36,16.8Z"/><path class="cls-2" d="M12,16.8A4.8,4.8,0,1,0,7.2,12,4.8,4.8,0,0,0,12,16.8Z"/><path class="cls-2" d="M0,52.8A4.8,4.8,0,0,0,4.8,48,4.8,4.8,0,0,0,0,43.2a4.8,4.8,0,0,0,0,9.6Z"/><path class="cls-2" d="M0,28.8A4.8,4.8,0,0,0,4.8,24,4.8,4.8,0,0,0,0,19.2a4.8,4.8,0,0,0,0,9.6Z"/><path class="cls-2" d="M24,4.8A4.8,4.8,0,0,0,28.8,0a4.8,4.8,0,0,0-9.6,0A4.8,4.8,0,0,0,24,4.8Z"/><path class="cls-2" d="M48,4.8A4.8,4.8,0,0,0,52.8,0a4.8,4.8,0,0,0-9.6,0A4.8,4.8,0,0,0,48,4.8Z"/><path class="cls-2" d="M0,4.8A4.8,4.8,0,0,0,4.8,0,4.8,4.8,0,0,0,0-4.8,4.8,4.8,0,0,0-4.8,0,4.8,4.8,0,0,0,0,4.8Z"/></pattern></defs><title>Cinema Social</title><g id="Cinema"><g class="cls-3"><rect class="cls-1" x="12.75" y="-1.62" width="88.44" height="88.44" transform="translate(125.69 24.23) rotate(128.25)"/><polygon class="cls-4" points="71.16 96.02 78.01 87.34 8.55 32.59 1.71 41.27 71.16 96.02"/><polygon class="cls-5" points="84.85 78.66 91.7 69.98 22.24 15.22 15.39 23.9 84.85 78.66"/><polygon class="cls-6" points="98.54 61.3 105.39 52.61 35.93 -2.14 29.08 6.54 98.54 61.3"/><polygon class="cls-7" points="112.23 43.93 119.07 35.25 49.62 -19.51 42.77 -10.82 112.23 43.93"/></g><g class="cls-8"><rect class="cls-1" x="26.55" y="10.51" width="88.44" height="88.44" transform="translate(-17.88 42.72) rotate(-30)"/><polygon class="cls-9" points="77.39 -0.15 67.81 5.38 112.03 81.97 121.61 76.45 77.39 -0.15"/><polygon class="cls-10" points="58.24 10.91 48.66 16.43 92.89 93.03 102.46 87.5 58.24 10.91"/><polygon class="cls-11" points="39.09 21.96 29.52 27.49 73.74 104.08 83.31 98.56 39.09 21.96"/><polygon class="cls-12" points="19.94 33.02 10.37 38.55 54.59 115.14 64.16 109.61 19.94 33.02"/></g><rect class="cls-13" x="26.55" y="54.73" width="76.97" height="11"/><line class="cls-14" x1="34.29" y1="82.51" x2="58.91" y2="82.69"/><line class="cls-14" x1="34.29" y1="90.49" x2="58.91" y2="90.66"/><line class="cls-14" x1="34.29" y1="98.46" x2="58.91" y2="98.63"/><line class="cls-14" x1="66.36" y1="90.57" x2="70.17" y2="90.57"/><circle class="cls-14" cx="88.37" cy="92.57" r="5.55"/><rect class="cls-13" x="26.55" y="65.91" width="76.97" height="44.09"/><rect class="cls-13" x="21.78" y="29.87" width="76.97" height="11" transform="translate(-8.81 24.84) rotate(-21.75)"/></g></svg>