<svg xmlns="http://www.w3.org/2000/svg" viewBox="0 0 126 126"><defs><style>.cls-1,.cls-2{fill:none;stroke:#000;}.cls-1{stroke-miterlimit:10;}.cls-2{stroke-linecap:round;stroke-linejoin:round;}</style></defs><title>Cocktail Social</title><g id="Cocktail_Glass" data-name="Cocktail Glass"><ellipse class="cls-1" cx="63" cy="23.64" rx="40" ry="2.25"/><path class="cls-2" d="M58.86,105.94a95.28,95.28,0,0,0,2-11.93c.46-4,.73-8,.88-11.94a115.8,115.8,0,0,0-.08-11.93A66,66,0,0,0,60,58.56L32.83,33.08l-9.39-8.81S34.75,25.88,63,25.9s39.56-1.63,39.56-1.63L66,58.57a64.82,64.82,0,0,0-1.67,11.57,115.8,115.8,0,0,0-.08,11.93c.15,4,.42,8,.88,11.94a95.28,95.28,0,0,0,2,11.93"/><path class="cls-2" d="M47.37,29.49a3.08,3.08,0,0,1-2.81,2.35c-.5,1.78.15,4.23,1.87,6.29C48.78,41,52.21,42,54.09,40.39s1.49-5.12-.86-7.94C51.51,30.39,49.21,29.31,47.37,29.49Z"/><line class="cls-2" x1="45.08" y1="29.6" x2="33.41" y2="15.55"/><line class="cls-2" x1="64.51" y1="53.08" x2="55.23" y2="41.67"/><circle class="cls-2" cx="65.14" cy="44.1" r="1.3"/><circle class="cls-2" cx="73.97" cy="40.64" r="1.3"/><circle class="cls-2" cx="67.73" cy="34.87" r="1.3"/><path class="cls-1" d="M66.55,103.11c8.81.32,15.48,1.83,15.48,3.64,0,2-8.52,3.7-19,3.7s-19-1.66-19-3.7c0-1.8,6.62-3.31,15.4-3.64"/></g></svg>