<svg xmlns="http://www.w3.org/2000/svg" viewBox="0 0 126 126"><defs><style>.cls-1,.cls-2{fill:none;stroke:#000;}.cls-1{stroke-miterlimit:10;}.cls-2{stroke-linecap:round;stroke-linejoin:round;}</style></defs><title>Coffee Social</title><g id="Coffee"><path class="cls-1" d="M106.85,59.46c7.57.6,11,6.58,10.23,15.9C116,88.83,100.63,92.66,89.7,95.52"/><path class="cls-1" d="M95.2,89c8.62-2.62,16.77-6.48,17.38-14,.55-6.92-2.06-9.64-6.7-10"/><path d="M58.56,46.6c23,0,43.08,1.2,48.73,2.88v.12c-5.66,1.68-25.71,2.87-48.73,2.87S15.49,51.28,9.83,49.6v-.12c5.65-1.68,25.69-2.88,48.73-2.88m0-1C34,45.6,13.44,47,8.82,48.77c0,.51,0,1,0,1.55,4.65,1.8,25.14,3.15,49.72,3.15s45.07-1.35,49.72-3.15c0-.52,0-1,0-1.55C103.68,47,83.17,45.6,58.56,45.6Z"/><path class="cls-1" d="M35.07,16.38c-1.36,1.26-2.93,3.16-2.71,5.41.26,2.7,2.85,3.31,3.17,6.14s-1.9,3.41-2.27,6.44c-.21,1.8.28,4,2.27,6.43"/><path class="cls-1" d="M59.7,16.38c-1.37,1.26-2.94,3.16-2.72,5.41.26,2.7,2.86,3.31,3.17,6.14s-1.9,3.41-2.26,6.44c-.22,1.8.28,4,2.26,6.43"/><path class="cls-1" d="M84.32,16.38c-1.36,1.26-2.93,3.16-2.71,5.41.26,2.7,2.85,3.31,3.16,6.14s-1.9,3.41-2.26,6.44c-.21,1.8.28,4,2.26,6.43"/><path class="cls-1" d="M100.61,79.08q-3.45-2.58-6.76-5.26-6.7,8.3-14.3,16.21-8.14-7-15.48-14.46Q56.48,83,48,90q-7.91-7.92-14.86-16.27-6.69,5.58-13.94,10.81"/><path class="cls-1" d="M103.77,71.84q-5.64-4-10.92-8.31-6.7,8.3-14.3,16.21-8.14-7-15.48-14.46-7.59,7.47-16,14.46-7.91-7.92-14.86-16.27-8.05,6.72-16.93,12.92"/><path class="cls-2" d="M9.33,50.34c1.17,32.8,22.77,59.28,49.24,59.28s48.05-26.44,49.22-59.24"/></g></svg>