<svg xmlns="http://www.w3.org/2000/svg" viewBox="0 0 126 126"><defs><style>.cls-1{fill:none;stroke:#000;stroke-miterlimit:10;}</style></defs><title>Financial Social </title><g id="Calculator"><rect class="cls-1" x="30.61" y="23.93" width="64.79" height="24.73" rx="10.95" ry="10.95"/><rect class="cls-1" x="29.18" y="48.66" width="67.65" height="57.37" rx="12.07" ry="12.07"/><rect class="cls-1" x="37.7" y="58.1" width="10.48" height="6.92" rx="3.4" ry="3.4"/><rect class="cls-1" x="51.09" y="58.1" width="10.48" height="6.92" rx="3.4" ry="3.4"/><rect class="cls-1" x="64.43" y="58.1" width="10.48" height="6.92" rx="3.4" ry="3.4"/><rect class="cls-1" x="77.82" y="58.1" width="10.48" height="6.92" rx="3.4" ry="3.4"/><rect class="cls-1" x="37.7" y="68.62" width="10.48" height="6.92" rx="3.4" ry="3.4"/><rect class="cls-1" x="51.09" y="68.62" width="10.48" height="6.92" rx="3.4" ry="3.4"/><rect class="cls-1" x="64.43" y="68.62" width="10.48" height="6.92" rx="3.4" ry="3.4"/><rect class="cls-1" x="77.82" y="68.62" width="10.48" height="6.92" rx="3.4" ry="3.4"/><rect class="cls-1" x="37.7" y="79.15" width="10.48" height="6.92" rx="3.4" ry="3.4"/><rect class="cls-1" x="51.09" y="79.15" width="10.48" height="6.92" rx="3.4" ry="3.4"/><rect class="cls-1" x="64.43" y="79.15" width="10.48" height="6.92" rx="3.4" ry="3.4"/><rect class="cls-1" x="77.82" y="79.15" width="10.48" height="6.92" rx="3.4" ry="3.4"/><rect class="cls-1" x="37.7" y="89.67" width="10.48" height="6.92" rx="3.4" ry="3.4"/><rect class="cls-1" x="51.09" y="89.67" width="10.48" height="6.92" rx="3.4" ry="3.4"/><rect class="cls-1" x="64.43" y="89.67" width="10.48" height="6.92" rx="3.4" ry="3.4"/><rect class="cls-1" x="77.82" y="89.67" width="10.48" height="6.92" rx="3.4" ry="3.4"/><rect class="cls-1" x="26.32" y="18" width="73.36" height="91" rx="11.65" ry="11.65"/></g></svg>