<svg xmlns="http://www.w3.org/2000/svg" viewBox="0 0 126 126"><defs><style>.cls-1,.cls-2{fill:none;stroke:#333;stroke-miterlimit:10;}.cls-2{stroke-width:0.75px;}.cls-3{fill:#333;}</style></defs><title>Flower Social</title><g id="Florist"><path class="cls-1" d="M57.19,60c0,.09-.09.19-.14.28l.23-.2.14.11Z"/><path class="cls-1" d="M58.85,61.3l.48.34Z"/><path class="cls-1" d="M61.82,65.21c.25-.68.5-1.32.77-1.88l0,0a16.84,16.84,0,0,1-1.83-.84c.09.05.17.11.26.15a23.07,23.07,0,0,1-3,6.61c-2.66,4.14-5.65,6-7.43,5.9-10.66,30-9.37,38.7-9.25,40l6.39-.56c0-.31-1.54-11.45,8.77-37.21"/><path class="cls-1" d="M56.51,77.44l0-.08"/><path class="cls-1" d="M58,69.27a25.41,25.41,0,0,0,3-6.61c-.09,0-.17-.1-.26-.15a16.86,16.86,0,0,1-1.48-.87l-.48-.34a15.88,15.88,0,0,1-1.43-1.14l-.14-.11-.23.2"/><path class="cls-1" d="M62.64,63.35l0,0c-.27.56-.52,1.2-.77,1.88.29-.61.57-1.23.87-1.84Z"/><path class="cls-1" d="M70.73,18.83c-.54-3.53-1.6-6-2.84-6s-2.52,2.92-3,7a27.26,27.26,0,0,1,1.28,4.24,23.67,23.67,0,0,1,.56,7c-.13,0-.25.05-.38.06a16.51,16.51,0,0,1,2-.15,23.72,23.72,0,0,1,.36-6A22.89,22.89,0,0,1,70.73,18.83Z"/><path class="cls-1" d="M69.59,71.36A23.78,23.78,0,0,1,69,64.42h0c-.18,0-.36,0-.54,0-.37,0-.75,0-1.12-.06a23.22,23.22,0,0,1-.36,6.05,22.61,22.61,0,0,1-2,6.2c.55,3.43,1.6,5.79,2.82,5.79s2.5-2.84,3-6.85A26.85,26.85,0,0,1,69.59,71.36Z"/><path class="cls-1" d="M51.93,46.63c0,.2,0,.39-.06.58a22.52,22.52,0,0,1-6.66-.3,23.3,23.3,0,0,1-5.91-1.84c-2.76.58-4.58,1.56-4.58,2.68s2.3,2.33,5.63,2.86a27.3,27.3,0,0,1,3.93-1.16A22.11,22.11,0,0,1,51.9,49c0,.17.06.33.07.5a16.37,16.37,0,0,1-.13-1.73C51.84,47.37,51.9,47,51.93,46.63Z"/><path class="cls-1" d="M96.19,50.29c2.3-.59,3.8-1.5,3.8-2.54s-1.94-2.21-4.8-2.76a28.35,28.35,0,0,1-3.69,1.06,24.67,24.67,0,0,1-6.33.59c0,.37.06.74.06,1.11,0,.14,0,.28,0,.42a25.46,25.46,0,0,1,5.36.42A23.68,23.68,0,0,1,96.19,50.29Z"/><path class="cls-1" d="M55.72,58.37c.12.15.23.32.36.46a22.81,22.81,0,0,1-4.82,4.36,22.25,22.25,0,0,1-6.13,3.11c-2.8,3.46-4.2,6.49-3.24,7.45s4.51-.71,8.33-4a27.15,27.15,0,0,1,2.18-4.12,22.57,22.57,0,0,1,4.88-5.6,2.78,2.78,0,0,0,.27.21A18.15,18.15,0,0,1,55.72,58.37Z"/><path class="cls-1" d="M84.52,32.3a22.75,22.75,0,0,1,6-3.06c2.46-3.17,3.64-5.93,2.72-6.85s-4.19.5-7.73,3.44a26.39,26.39,0,0,1-2.14,4,24.19,24.19,0,0,1-4.21,5c-.2-.17-.43-.3-.64-.46A17.47,17.47,0,0,1,81,36.78c-.24-.28-.45-.58-.72-.85A25.25,25.25,0,0,1,84.52,32.3Z"/><path class="cls-1" d="M57,35.71a21.87,21.87,0,0,1-5.88-6,27.89,27.89,0,0,1-2.46-4.29c-1.57-.76-2.85-.94-3.46-.33-.83.84-.18,2.93,1.45,5.35A27.09,27.09,0,0,1,50,32.26a22.49,22.49,0,0,1,5.63,4.92c-.16.2-.29.42-.44.62a17.27,17.27,0,0,1,2.55-2.72C57.48,35.29,57.22,35.49,57,35.71Z"/><path class="cls-1" d="M89.15,65.1a27.18,27.18,0,0,1-3.36-1.86,24.16,24.16,0,0,1-5-4.18c.17-.18.31-.39.47-.59a18,18,0,0,1-2.38,2.32c.22-.18.46-.33.67-.52a24.45,24.45,0,0,1,5.14,5.55,28.33,28.33,0,0,1,2.45,4.3c1.58.76,2.85.93,3.46.33C91.43,69.61,90.78,67.51,89.15,65.1Z"/><path class="cls-1" d="M59.65,25.56A25.06,25.06,0,0,1,59,19.42C57.41,17,55.78,15.61,54.76,16s-1.22,3.14-.37,6.58a28.58,28.58,0,0,1,2.45,3.08,22.1,22.1,0,0,1,3.56,7.48l-.51.33A16.75,16.75,0,0,1,63.13,32c-.33.11-.67.2-1,.33A23.13,23.13,0,0,1,59.65,25.56Z"/><path class="cls-1" d="M81,72.42a30.24,30.24,0,0,1-2.06-2.62,23.66,23.66,0,0,1-3.43-6.9c.18-.09.34-.2.52-.29a17.78,17.78,0,0,1-2.82,1.11c.21-.06.44-.09.64-.16a24,24,0,0,1,2.29,6.38,26.35,26.35,0,0,1,.62,5.42c1.29,1.58,2.54,2.41,3.42,2S81.46,75,81,72.42Z"/><path class="cls-1" d="M52.65,52.73c.05.18.09.37.15.55A22.26,22.26,0,0,1,45.7,56a23.72,23.72,0,0,1-6.73.57c-2.42,1.68-3.77,3.4-3.31,4.54.59,1.42,3.86,1.46,7.86.31a25.33,25.33,0,0,1,4.08-3.49,22.5,22.5,0,0,1,5.87-3,1.43,1.43,0,0,0,.12.21A17.58,17.58,0,0,1,52.65,52.73Z"/><path class="cls-1" d="M90.08,39.51a24.14,24.14,0,0,1,6.73-.58c2.42-1.67,3.78-3.4,3.31-4.53-.59-1.42-3.86-1.46-7.86-.31a26.59,26.59,0,0,1-8.85,6.12c-.11-.22-.26-.42-.38-.63a17.81,17.81,0,0,1,1.31,3c-.1-.32-.17-.66-.3-1A24.27,24.27,0,0,1,90.08,39.51Z"/><path class="cls-1" d="M61.81,65.21c.25-.69.51-1.31.78-1.88.19.08.4.11.59.18a17.18,17.18,0,0,1-2.8-1.25c.23.13.45.28.69.4a23.07,23.07,0,0,1-3,6.61,26.64,26.64,0,0,1-3.39,4.28c-.2,2,.1,3.49,1,3.86a1.32,1.32,0,0,0,.86,0"/><path class="cls-1" d="M56.47,77.43c1.11-.32,2.52-1.77,3.85-3.9a26.14,26.14,0,0,1,1.49-8.32"/><path class="cls-1" d="M81.51,21.6c.45-2.6.23-4.51-.75-4.92-1.26-.52-3.38,1.58-5.29,5a26.18,26.18,0,0,1-.42,4.55,24.71,24.71,0,0,1-1.67,5.57c-.24-.08-.49-.11-.73-.17a17.91,17.91,0,0,1,3,1.11c-.28-.13-.54-.29-.83-.41a23.81,23.81,0,0,1,2.88-6.08A25.85,25.85,0,0,1,81.51,21.6Z"/><path class="cls-1" d="M46.37,37.89a24,24,0,0,1-5.16-4.36c-2.9-.53-5.08-.26-5.55.87-.58,1.42,1.7,3.76,5.34,5.77a25.27,25.27,0,0,1,5.35.42,22.42,22.42,0,0,1,6.3,2c0,.17-.08.36-.13.53a17.14,17.14,0,0,1,1-2.61c-.08.15-.17.29-.24.44A22.14,22.14,0,0,1,46.37,37.89Z"/><path class="cls-1" d="M93.67,55.32a26.45,26.45,0,0,1-4.24-.41,24.85,24.85,0,0,1-5.21-1.51c.1-.26.14-.54.23-.81a17.37,17.37,0,0,1-1.31,3.1c.16-.29.35-.56.5-.87a24.69,24.69,0,0,1,5.77,2.79A26.64,26.64,0,0,1,93.69,61c2,.21,3.5-.09,3.86-1C98,58.87,96.41,57,93.67,55.32Z"/><path class="cls-2" d="M57.14,26.53c-3.18-4.59-7-7.44-8.53-6.38s-.19,5.64,3,10.23a21.34,21.34,0,0,0,5.68,5.83,16.15,16.15,0,0,1,3.3-2.45A21.49,21.49,0,0,0,57.14,26.53Z"/><path class="cls-2" d="M84,65.3a23,23,0,0,0-5-5.36,16.3,16.3,0,0,1-3.89,2.54,22.59,22.59,0,0,0,3.32,6.66c3.18,4.59,7,7.45,8.53,6.39S87.22,69.89,84,65.3Z"/><path class="cls-2" d="M48.21,57.67c-4.22,2.92-6.85,6.44-5.88,7.85s5.19.17,9.42-2.76a22.22,22.22,0,0,0,4.65-4.21,16.2,16.2,0,0,1-2.52-3.8A21.76,21.76,0,0,0,48.21,57.67Z"/><path class="cls-2" d="M93.3,30.16c-1-1.41-5.19-.17-9.41,2.76a23.53,23.53,0,0,0-4.06,3.5,16.3,16.3,0,0,1,3,4.13A23.62,23.62,0,0,0,87.42,38C91.65,35.08,94.28,31.57,93.3,30.16Z"/><path class="cls-2" d="M60.9,68.65c-.91,5.06-.29,9.4,1.4,9.71s3.79-3.55,4.71-8.61a22.85,22.85,0,0,0,.34-5.84,16.28,16.28,0,0,1-4.65-1A22.55,22.55,0,0,0,60.9,68.65Z"/><path class="cls-2" d="M73.12,32.41A23.35,23.35,0,0,0,74.73,27c.92-5.06.29-9.41-1.39-9.71s-3.8,3.55-4.71,8.6a22.59,22.59,0,0,0-.35,5.8h.16A16.11,16.11,0,0,1,73.12,32.41Z"/><path class="cls-2" d="M47,40.92C42,40,37.6,40.63,37.3,42.32s3.54,3.79,8.6,4.71a22,22,0,0,0,6.44.29,16,16,0,0,1,.75-4.44A21.94,21.94,0,0,0,47,40.92Z"/><path class="cls-2" d="M89.73,48.65a23.7,23.7,0,0,0-5.19-.4,15.93,15.93,0,0,1-.94,5,23.52,23.52,0,0,0,5,1.45c5.06.92,9.4.29,9.71-1.39S94.79,49.56,89.73,48.65Z"/><path class="cls-2" d="M66.17,25C65,19.79,62.7,15.85,61,16.23s-2.24,4.93-1.1,10.17a22.74,22.74,0,0,0,2.41,6.54,15.82,15.82,0,0,1,4.45-1.13A22.65,22.65,0,0,0,66.17,25Z"/><path class="cls-2" d="M69.46,70.65c1.14,5.24,3.47,9.18,5.22,8.8s2.24-4.93,1.1-10.17a23.11,23.11,0,0,0-2.2-6.16,16.27,16.27,0,0,1-4.66.82A22.82,22.82,0,0,0,69.46,70.65Z"/><path class="cls-2" d="M45,49.48c-5.23,1.14-9.17,3.48-8.79,5.22s4.93,2.24,10.17,1.1a21.17,21.17,0,0,0,6.85-2.62A16.2,16.2,0,0,1,52.37,49,21.34,21.34,0,0,0,45,49.48Z"/><path class="cls-2" d="M89.26,39.87a24,24,0,0,0-5.84,2,15.84,15.84,0,0,1,1.09,4.87,23.85,23.85,0,0,0,6.12-.57c5.24-1.14,9.18-3.48,8.8-5.22S94.5,38.74,89.26,39.87Z"/><path class="cls-2" d="M52.85,65.13c-2.9,4.51-4,9-2.53,9.91s5.07-1.9,8-6.41a22.13,22.13,0,0,0,2.93-6.38,16.15,16.15,0,0,1-3.65-2.52A21.71,21.71,0,0,0,52.85,65.13Z"/><path class="cls-2" d="M82.79,30.55c2.9-4.51,4-8.95,2.53-9.92s-5.07,1.91-8,6.42a23.09,23.09,0,0,0-2.79,5.87,16.24,16.24,0,0,1,4.16,2.49A23.62,23.62,0,0,0,82.79,30.55Z"/><path class="cls-2" d="M50.52,32.87c-4.5-2.9-8.94-4-9.91-2.53s1.91,5.07,6.41,8a21.76,21.76,0,0,0,6.68,3A16,16,0,0,1,56,37.63,21.69,21.69,0,0,0,50.52,32.87Z"/><path class="cls-2" d="M88.61,57.37A23.69,23.69,0,0,0,83,54.67a16.13,16.13,0,0,1-2.76,4.1,23.9,23.9,0,0,0,4.84,4c4.51,2.9,9,4,9.91,2.53S93.12,60.27,88.61,57.37Z"/><path class="cls-1" d="M45.18,90.42s-6.77,1.16-10.76-2.36-3.67-10.39-3.67-10.39S37.52,76.51,41.51,80,45.18,90.42,45.18,90.42Z"/><path class="cls-1" d="M66,89.2s-.72,6.83-5.19,9.71-11,.72-11,.72.72-6.83,5.19-9.71S66,89.2,66,89.2Z"/><path class="cls-3" d="M68.42,32A15.8,15.8,0,1,1,52.63,47.83,15.79,15.79,0,0,1,68.42,32m0-1.5A17.3,17.3,0,1,0,85.71,47.83,17.31,17.31,0,0,0,68.42,30.54Z"/></g></svg>