<svg xmlns="http://www.w3.org/2000/svg" viewBox="0 0 126 126"><defs><style>.cls-1,.cls-2{fill:none;stroke:#333;}.cls-1{stroke-linecap:round;stroke-linejoin:round;}.cls-2{stroke-miterlimit:10;}</style></defs><title>Home Social</title><g id="House"><polygon class="cls-1" points="39.58 47.22 33.83 50.97 33.71 40.39 39.5 40.39 39.58 47.22"/><path class="cls-1" d="M82.14,96.4a7.35,7.35,0,0,1,2.36.39,7.47,7.47,0,0,1,7.39-6.4c1.39,0,5.67,0,7.11,5.06l0-31.09-2.94,0L63,42.27,30,64.34l-2.46,0v41H74.83a7.35,7.35,0,0,1-.15-1.42A7.47,7.47,0,0,1,82.14,96.4Z"/><path class="cls-1" d="M74.83,105.29a7.45,7.45,0,0,0,4.27,5.39v.63a1,1,0,0,0,1,1h23.72a1,1,0,0,0,1-1v-1.13a7.46,7.46,0,0,0-4-13.84,7.13,7.13,0,0,0-1.53.2A10.37,10.37,0,0,0,99,95.45"/><path class="cls-1" d="M63,42.27,87.63,58.72l8.16,5.45a1,1,0,0,0,.55.17H109a1,1,0,0,0,.56-1.83L87.63,47.89,63,31.43,38.38,47.89,16.49,62.51a1,1,0,0,0,.56,1.83H29.66a1,1,0,0,0,.55-.17l8.17-5.45Z"/><rect class="cls-1" x="38.5" y="65.06" width="10" height="10"/><rect class="cls-1" x="58.5" y="87.56" width="10" height="17.67"/><rect class="cls-1" x="78.5" y="65.06" width="10" height="10"/><path class="cls-2" d="M56.5,14.26c-.1,3.58-1.1,6.06-3,7.36a7.06,7.06,0,0,1-4.25,1c-1.16,0-1.67.05-2,.42s-.29.64-.27,1.5a4.75,4.75,0,0,1-1,3.65,5.2,5.2,0,0,1-4.15,1.46,4.24,4.24,0,0,0-2.3.45c-1.19.8-1.73,3.17-1.51,6.66a.49.49,0,0,1-.46.53l-1,.06h-.06l-1,.06h0a.5.5,0,0,1-.33-.12A.53.53,0,0,1,35,37c-.3-4.8.62-7.85,2.83-9.34a6.77,6.77,0,0,1,3.89-1c1.15,0,1.65-.08,2-.46s.32-.69.29-1.57A4.71,4.71,0,0,1,45.06,21a5.19,5.19,0,0,1,4.19-1.39,4.33,4.33,0,0,0,2.56-.5c1-.72,1.62-2.4,1.69-5a.51.51,0,0,1,.15-.35.53.53,0,0,1,.36-.14l1,0h0l1,0a.51.51,0,0,1,.35.15A.54.54,0,0,1,56.5,14.26Z"/></g></svg>