<svg xmlns="http://www.w3.org/2000/svg" viewBox="0 0 126 126"><defs><style>.cls-1,.cls-2,.cls-3,.cls-4{fill:none;stroke:#333;}.cls-1,.cls-4{stroke-linecap:round;}.cls-1,.cls-2{stroke-linejoin:round;}.cls-3,.cls-4{stroke-miterlimit:10;}</style></defs><title>Ice Cream Social</title><g id="Ice_Cream" data-name="Ice Cream"><path class="cls-1" d="M83.38,48c3.24,2.31,5.12,6.4,5,9.33A7.1,7.1,0,0,1,87,61.08c-7.9,1.73-16,3.19-24.17,2.81a18.76,18.76,0,0,0-6.73.86c-8.16-1.48-10.06-2.37-15.79-3.7A8.26,8.26,0,0,1,37.63,55c.11-2.34,1.48-4.47,3.77-6.25l.36-.26A5.89,5.89,0,0,1,41,45.33c.12-2.62,2.12-4.94,5.34-6.66l-.15-.45c-.05-.18-.1-.37-.14-.56a7.66,7.66,0,0,1,0-3C47.75,25.39,70.73,28,61.24,15.26c-6.35-8.49,18.17,12.44,18.67,21a4,4,0,0,1-.45,2.11c3,2,4.69,4.46,4.57,7a5.81,5.81,0,0,1-.65,2.38c-1.24,2.4-4.14,4.4-8.06,5.72a37,37,0,0,1-13.25,1.64,38.54,38.54,0,0,1-11.59-2.26"/><path class="cls-1" d="M57.06,43.58c9.28,2.87,18.86.27,22.49-5.33"/><path class="cls-2" d="M62.12,112.62,40.16,61A148.11,148.11,0,0,0,56,64.76a20.65,20.65,0,0,1,6.8-.87c8,.37,24.17-2.81,24.17-2.81L67.56,112.71C66.91,114.48,62.88,114.41,62.12,112.62Z"/><path class="cls-3" d="M67.61,113c-.5,1.34-3.71,1.14-4-.25L54.87,66.4s-.58-2.75,7.88-2.37,24.5-2.88,24.5-2.88Z"/><path class="cls-4" d="M61.13,74.15s13.69,1,21.77-2.16"/><path class="cls-4" d="M62.21,83.57s14.18.68,17.71-3.07"/><path class="cls-4" d="M63.29,92.58s8.09-.32,12.56-1.88"/></g></svg>