<svg id="Capa_1" data-name="Capa 1" xmlns="http://www.w3.org/2000/svg" viewBox="0 0 163 163"><defs><style>.cls-1{fill:#fff;}.cls-2{fill:none;stroke:#fff;stroke-miterlimit:10;stroke-width:8px;}</style></defs><title>insta-8px</title><path class="cls-1" d="M105.66,43.57a13.79,13.79,0,0,1,13.77,13.77v48.32a13.79,13.79,0,0,1-13.77,13.77H57.34a13.79,13.79,0,0,1-13.77-13.77V57.34A13.79,13.79,0,0,1,57.34,43.57h48.32m0-8H57.34A21.84,21.84,0,0,0,35.57,57.34v48.32a21.84,21.84,0,0,0,21.77,21.77h48.32a21.84,21.84,0,0,0,21.77-21.77V57.34a21.84,21.84,0,0,0-21.77-21.77Z"/><path class="cls-1" d="M81.5,60A21.54,21.54,0,1,1,60,81.5,21.56,21.56,0,0,1,81.5,60m0-8A29.54,29.54,0,1,0,111,81.5,29.55,29.55,0,0,0,81.5,52Z"/><path class="cls-1" d="M110.48,47.67a4.93,4.93,0,1,0,4.93,4.93,4.93,4.93,0,0,0-4.93-4.93Z"/><circle class="cls-2" cx="81.5" cy="81.5" r="77.5"/></svg>