<svg xmlns="http://www.w3.org/2000/svg" viewBox="0 0 126 126"><defs><style>.cls-1{fill:none;stroke:#000;stroke-miterlimit:10;}</style></defs><title>Locksmith Social</title><g id="Locksmith"><path class="cls-1" d="M58.36,70.42h.16a5.95,5.95,0,0,1,2.24,11.45l-.07.25a2.71,2.71,0,0,1,.8,1.91v7.46a3.16,3.16,0,0,1-6.25,0V84a2.67,2.67,0,0,1,.8-1.91L56,81.87a5.95,5.95,0,0,1,2.24-11.45Z"/><line class="cls-1" x1="93.43" y1="36.75" x2="93.87" y2="36.75"/><path class="cls-1" d="M58.21,46.65a4.95,4.95,0,0,1,0-9.9h41.85a1.73,1.73,0,0,1,1.74,1.73V50.37a4.23,4.23,0,0,1-4.21,4.21h-.51a4.22,4.22,0,0,1-4.2-4.21V46.65Z"/><path class="cls-1" d="M65.83,36.75a8.6,8.6,0,0,0-7.62-4,8.92,8.92,0,0,0,0,17.83,9.28,9.28,0,0,0,7.64-3.92l-7.12,0A6,6,0,0,1,55,45.5a4.78,4.78,0,0,1-1.74-3.8,5.4,5.4,0,0,1,1.89-4,6.91,6.91,0,0,1,3.91-1Z"/><path class="cls-1" d="M78.88,46.65v56.46c0,6.54-6.62,11.89-14.71,11.89H51.91c-8.09,0-14.71-5.35-14.71-11.89V21.89C37.2,15.35,43.82,10,51.91,10H64.17c8.09,0,14.71,5.35,14.71,11.89V36.75h-6.8v-7.7a9.82,9.82,0,0,0-9.79-9.79H54.13a9.82,9.82,0,0,0-9.79,9.79V96a9.82,9.82,0,0,0,9.79,9.79h8.16A9.82,9.82,0,0,0,72.08,96V46.71Z"/></g></svg>