<svg xmlns="http://www.w3.org/2000/svg" viewBox="0 0 230.59 120.81"><defs><style>.cls-1{fill:none;stroke:#fff;stroke-miterlimit:10;}.cls-2{fill:#fff;}</style></defs><title>FODE footer-logo</title><g id="Shop_1920_Desktop" data-name="Shop 1920 Desktop"><circle class="cls-1" cx="220.42" cy="38.47" r="9.66"/><path class="cls-2" d="M105.45,7.4a3,3,0,0,1,1.44.53A3.22,3.22,0,0,1,108,9.31a7.66,7.66,0,0,1,.59,2.35,15.73,15.73,0,0,1,0,3.43,23.22,23.22,0,0,1-.77,4,14.49,14.49,0,0,1-1.52,3.61,7.92,7.92,0,0,1-2.32,2.5,4.58,4.58,0,0,1-3.12.74,4.3,4.3,0,0,1-2.55-1.05,5.67,5.67,0,0,1-1.43-2.18A9.21,9.21,0,0,1,96.27,20a19,19,0,0,1,.06-2.82,21.82,21.82,0,0,1,.4-2.55,12.1,12.1,0,0,1,.74-2.4,6.25,6.25,0,0,1,1.21-1.84,2.81,2.81,0,0,1,1.71-.86,4,4,0,0,1,1-1.33,3.68,3.68,0,0,1,1.28-.68,5,5,0,0,1,1.39-.2A10.66,10.66,0,0,1,105.45,7.4Zm-2.66,17q.58.06,1.23-1a12.86,12.86,0,0,0,1.21-2.67,26.66,26.66,0,0,0,1-3.53,22.74,22.74,0,0,0,.44-3.58,8.32,8.32,0,0,0-.31-2.81A1.55,1.55,0,0,0,105,9.52c-.29,0-.51.16-.68.55a12.27,12.27,0,0,0-.47,1.37c-.15.52-.32,1-.52,1.57a2.46,2.46,0,0,1-.81,1.17c-.1,1.06-.25,2.18-.44,3.35s-.32,2.26-.41,3.25a9,9,0,0,0,.08,2.49C101.9,23.93,102.24,24.29,102.79,24.35Z"/><path class="cls-2" d="M117.49,13.23A13,13,0,0,0,126,10.12c.32,0,.61.42.85,1.13q.65,1.86-.18,2.49-3.77,3.07-10.36,2.21-1.48,3.81-1.81,4.68c.29,1.47.54,2.9.74,4.29.15,1,.28,2.51.38,4.52,0,1.8,0,3,0,3.68a28.67,28.67,0,0,1-.63,4.71q-1,4.17-2.66,5.83l-.19.19a2.32,2.32,0,0,1-3.15.55A11.74,11.74,0,0,1,106,42.23,4,4,0,0,1,105,39.1a31.76,31.76,0,0,1,.44-4.23,80.45,80.45,0,0,1,5.4-17q-1.27-3.15-2.61-4c.62-1.52,1.55-2.2,2.77-2l2.19.42q1.55-3.9,5.41-12h0a1,1,0,0,1,.54-.18,9.84,9.84,0,0,1,1.88,0,4.7,4.7,0,0,1,2.14.63.21.21,0,0,1,.07.13l-.08.21q-2.4,5.12-5.62,12.18Zm-7.34,28.46a9.35,9.35,0,0,0,1.46-2.32,16.44,16.44,0,0,0,.93-2.63,24.86,24.86,0,0,0,.6-3.43,33.78,33.78,0,0,0,.13-4.5,35.53,35.53,0,0,0-.4-4c-.41,1.14-.74,2.13-1,3a48.26,48.26,0,0,0-2.11,9,9.88,9.88,0,0,0,.36,4.84Z"/><path class="cls-2" d="M45.46,14.6a3.48,3.48,0,0,1,1.65.52,3.8,3.8,0,0,1,1.28,1.5,9.23,9.23,0,0,1,.79,2.62,18.44,18.44,0,0,1,.16,3.86,26.3,26.3,0,0,1-.64,4.58,15.72,15.72,0,0,1-1.52,4.14,8.87,8.87,0,0,1-2.45,2.93,5.17,5.17,0,0,1-3.48,1,4.76,4.76,0,0,1-2.92-1,6.27,6.27,0,0,1-1.71-2.36,10,10,0,0,1-.77-3.09,21.12,21.12,0,0,1-.09-3.18,25.35,25.35,0,0,1,.31-2.88,13.63,13.63,0,0,1,.71-2.74A6.54,6.54,0,0,1,38,18.35a3.15,3.15,0,0,1,1.9-1.07,4,4,0,0,1,2.45-2.37,5.47,5.47,0,0,1,1.55-.31C44.44,14.58,45,14.57,45.46,14.6Zm-2,19.2c.44,0,.88-.37,1.33-1.18A14.69,14.69,0,0,0,46,29.56a31,31,0,0,0,.87-4,23.94,23.94,0,0,0,.31-4.05,9.66,9.66,0,0,0-.5-3.15A1.76,1.76,0,0,0,45.09,17c-.32,0-.57.2-.72.65a13.92,13.92,0,0,0-.45,1.56c-.14.59-.31,1.19-.5,1.79a2.78,2.78,0,0,1-.85,1.37c-.06,1.2-.16,2.47-.31,3.79S42,28.73,42,29.85a9.77,9.77,0,0,0,.23,2.8,1.32,1.32,0,0,0,1.23,1.14Z"/><path class="cls-2" d="M90.93,18.12a.69.69,0,0,1,.27-.29.28.28,0,0,1,.25,0,.35.35,0,0,1,.16.25.65.65,0,0,1-.09.43c-.06.11-.18.4-.38.86s-.51,1.11-.8,1.65a22.39,22.39,0,0,1-1.22,2,11.51,11.51,0,0,1-1.61,1.87,6.89,6.89,0,0,1-2,1.31,4.31,4.31,0,0,1-2.33.29,6.26,6.26,0,0,1-2.88-1.12,7.41,7.41,0,0,1-2-2.14,8.17,8.17,0,0,1-1-2.65,7.79,7.79,0,0,1-.11-2.68,14.05,14.05,0,0,1,.8-3.14A20.17,20.17,0,0,1,79.27,12,14.53,14.53,0,0,1,80.68,10,8.47,8.47,0,0,1,82,8.69a3.2,3.2,0,0,1,1.33-.49,7,7,0,0,1,1.58,0,8.79,8.79,0,0,1,1.46.3,3.17,3.17,0,0,1,1,.45,2.73,2.73,0,0,1,1,1.61,6.05,6.05,0,0,1,.12,2.54A6.6,6.6,0,0,1,86.84,17,3.21,3.21,0,0,1,84,18a6,6,0,0,1-1.18-.31,10.3,10.3,0,0,1-1.08-.46,8,8,0,0,0-.16,2.49A8.84,8.84,0,0,0,82.1,22,5.34,5.34,0,0,0,83,23.67a2,2,0,0,0,1.24.78,3.45,3.45,0,0,0,1.88-.23,6,6,0,0,0,1.59-1A8.55,8.55,0,0,0,89,21.72c.36-.55.69-1.07,1-1.57a13.28,13.28,0,0,0,.63-1.32A4.45,4.45,0,0,1,90.93,18.12ZM85.79,11.3a1.66,1.66,0,0,0-1.22.31,4.34,4.34,0,0,0-1.06,1.12,8.77,8.77,0,0,0-.89,1.72,15.23,15.23,0,0,0-.69,2.07,2.41,2.41,0,0,0,1.72.47A2.62,2.62,0,0,0,85,16.28a4.29,4.29,0,0,0,.91-1.39,6.88,6.88,0,0,0,.45-1.61,3.77,3.77,0,0,0,0-1.34C86.25,11.55,86.07,11.34,85.79,11.3Z"/><path class="cls-2" d="M61.57,8.3a4.72,4.72,0,0,1,2.09,1C64.51,10,65,10.51,65,10.78q-1,4.83-1.71,9.85c-.19,1.31-.36,2.77-.5,4.36,0,.69-.05,1.05-.05,1.08a36.35,36.35,0,0,0,1.88-3.18c.43-.82.94-1.87,1.52-3.14h.06a3,3,0,0,1,1.57,1,1.07,1.07,0,0,1,.15.22A16.55,16.55,0,0,1,67,23a39.9,39.9,0,0,1-2.15,3.89,11.48,11.48,0,0,1-1.31,1.72,2.09,2.09,0,0,1-.79.52l-.12,0c-.69.12-1.54-.32-2.55-1.31A3.07,3.07,0,0,1,59.21,26v-.13a19.19,19.19,0,0,1,0-3.39,57.4,57.4,0,0,1-2.63,5.19c-1.14,1.91-2,2.92-2.7,3a2.41,2.41,0,0,1-1.88-.6A5.78,5.78,0,0,1,50.88,29a3.58,3.58,0,0,1-.73-2l0-.19Q49.67,22.74,51.61,14c.33-1.33.66-2.54,1-3.63l.14-.11a4.86,4.86,0,0,1,2.16,1.13c.8.64,1.21,1.09,1.24,1.34v.07c-.55,2-1.05,4-1.51,6.22-.35,1.73-.64,3.48-.85,5.27-.1,1-.16,2-.17,2.82,0,.57,0,.91,0,1A18.45,18.45,0,0,0,55,26.05q1.76-3.26,2.93-6A41.59,41.59,0,0,0,60,14.38q.76-2.74,1.42-6A.15.15,0,0,1,61.57,8.3Z"/><path class="cls-2" d="M66.91,22.15l-2-1.16c.8-2.14,3.29-8.1,4-10.48.48-1.57,1-2.9,1.42-4.15a1.85,1.85,0,0,1,1.38-1.55,3,3,0,0,1,1.91.35,1,1,0,0,1,.65.58,1.89,1.89,0,0,1-.32,1.11,4.32,4.32,0,0,0-.51,1.82,7.62,7.62,0,0,0,.24,2.13s.06.32.18.82l.1.42a35.08,35.08,0,0,0,1.86,5.08,14.43,14.43,0,0,1,.53,1.73l0,.09a10.72,10.72,0,0,1-.26,6.17,9.1,9.1,0,0,1-.62,1.3,6.27,6.27,0,0,1-1.08,1.38c-1.64,1.27-4.84,1.86-6.45.31-1-.93-1.9-2.92.56-6,.16.07.15.53.06.69-2.05,3.57-.08,5.18,1.14,4.79,1.71-.55,2.73-2.49,3.11-3.65a13.7,13.7,0,0,0,.51-2,11.6,11.6,0,0,0-.18-4.47A20.3,20.3,0,0,0,72,14.35a27.3,27.3,0,0,1-1.26-3.52h0A112.47,112.47,0,0,1,66.9,22.15Z"/><path class="cls-2" d="M20.89,11.73c-.75,3.06-1.43,6.35-2,9.78-2.62,1-3.79,1.82-3.66,2.71.06.43.47.94,1.3,1.63a15.8,15.8,0,0,0,1.58,1.09,42.41,42.41,0,0,0-.27,9.83c0,.14.07.37.13.69s.31.63.87,1.14a6.42,6.42,0,0,0,2.81,1.69.36.36,0,0,0,.23-.15l.07-.08-.16-1.19a29.31,29.31,0,0,1-.08-5.38,87.09,87.09,0,0,1,1.07-9c1.64-.57,3.85-1.19,6.58-1.86-1.08,7.2-1.32,13.05-.73,17.4,0,.37.13.84.23,1.38a1.43,1.43,0,0,0,.41.82,9.59,9.59,0,0,0,1.59,1.33,4.42,4.42,0,0,0,1.5.81h.17l.15,0,.21-.19,0-.14c-.15-.85-.25-1.41-.29-1.65-.68-5-.23-12,1.32-20.79a69.75,69.75,0,0,1,7.31-1.12.35.35,0,0,0,.26-.16.37.37,0,0,0,0-.34A4.48,4.48,0,0,0,39.81,18a4,4,0,0,0-2.09-1h-.08c-.6.16-1.6.38-3,.67.43-2.07.92-4.28,1.47-6.6a31.71,31.71,0,0,0,.77-3.23c0-.2-.21-.53-1.32-1.46-1.44-1.11-2-1.27-2.3-1.29l-.2,0L33,5.22l0,.09c-1.12,4.32-2.12,8.79-3,13.29-2.51.54-4.67,1-6.42,1.5.14-.69.28-1.37.43-2,.6-2.72,1.26-5.46,2-8.13V9.81c0-.2-.19-.5-1.18-1.34-1.61-1.24-2.15-1.38-2.41-1.41h-.08l-1.36.39A47.77,47.77,0,0,0,14.3,9.86a24.17,24.17,0,0,0-4.09,2.31,13.23,13.23,0,0,0-2.14,1.88,5.53,5.53,0,0,0-1.63,4.27A6.17,6.17,0,0,0,8,20.83a8,8,0,0,1,4.45-6.44A20.07,20.07,0,0,1,20.89,11.73Z"/><path class="cls-2" d="M89.43,32.75a8,8,0,0,1,3.71.93,14.09,14.09,0,0,1,3.17,2.24,12.14,12.14,0,0,1,2.21,2.74A5.27,5.27,0,0,1,99.33,41c0,.62-.2,1-.59,1.16a3.26,3.26,0,0,1-1.58.12q-1-.12-2.4-.39a15.18,15.18,0,0,0-3-.27,67.9,67.9,0,0,0-8.78.69q-5.22.68-11.44,2t-13.07,3q-6.84,1.74-13.65,3.83v.16a19.63,19.63,0,0,1-.68,3.63q-.69,2.78-1.62,7,2.63-.85,5.17-1.59c1.72-.49,3.27-.9,4.72-1.24s2.74-.59,3.86-.77A18.69,18.69,0,0,1,59.05,58a4.49,4.49,0,0,1,1.78.54,8.26,8.26,0,0,1,1.54,1.09A5.24,5.24,0,0,1,63.5,61a2.87,2.87,0,0,1,.42,1.43.79.79,0,0,1-.46.81,2.87,2.87,0,0,1-1.12.19,7.19,7.19,0,0,1-1.47-.15,7.66,7.66,0,0,0-1.51-.15,12.56,12.56,0,0,0-3.28.53,44.92,44.92,0,0,0-4.41,1.51c-1.62.65-3.35,1.38-5.18,2.21S42.84,69.06,41,69.92c-.41,2.53-.75,5.2-1,8s-.39,5.71-.39,8.7a96,96,0,0,0,.66,12q.64,5.34,1.46,9.12t1.51,5.92q.69,2.11.69,2.28c0,.25-.38.54-1.12.85a6,6,0,0,1-2.28.46,6.06,6.06,0,0,1-4.4-1.92,17.15,17.15,0,0,1-3.36-4.94,37.36,37.36,0,0,1-2.4-6.72c-.65-2.47-1.16-4.91-1.55-7.3s-.65-4.63-.81-6.69-.23-3.68-.23-4.87c0-2.94.07-5.72.23-8.35-1,.52-1.88.91-2.55,1.2a4.3,4.3,0,0,1-1.39.42,3.25,3.25,0,0,1-1.55-.46A7.06,7.06,0,0,1,21,76.48,6.32,6.32,0,0,1,19.86,75a3.1,3.1,0,0,1-.47-1.59c0-.77.89-1.71,2.67-2.85a46.9,46.9,0,0,1,6.85-3.48c.31-2.37.67-4.53,1.09-6.46a45,45,0,0,1,1.31-5q-6.1,2.24-11.4,4.63a83,83,0,0,0-9.25,4.84A30.38,30.38,0,0,0,4.49,70,7.05,7.05,0,0,0,2.23,74.5a2.09,2.09,0,0,1-.34,1.19,1.6,1.6,0,0,1-.77.66.76.76,0,0,1-.78-.11A1.41,1.41,0,0,1,0,75.12a14.82,14.82,0,0,1,3-8.7,37.88,37.88,0,0,1,8-8,75.1,75.1,0,0,1,11.66-7.2A153.15,153.15,0,0,1,36.69,45q7.41-2.87,15.08-5.14T66.46,36q7-1.55,13-2.4A72.5,72.5,0,0,1,89.43,32.75Z"/><path class="cls-2" d="M80,39.71A23.37,23.37,0,0,1,91,42a18.2,18.2,0,0,1,6.77,6,23.35,23.35,0,0,1,3.4,8.66,54.94,54.94,0,0,1,.93,10.24,60.92,60.92,0,0,1-.82,8.85A105.29,105.29,0,0,1,98.92,86.9a121.72,121.72,0,0,1-3.75,11.66,65.23,65.23,0,0,1-5,10.47,31.32,31.32,0,0,1-6.1,7.55,10.59,10.59,0,0,1-7,2.9,17,17,0,0,1-8.66-2.21,23,23,0,0,1-6.64-5.87A36.34,36.34,0,0,1,56.9,103a66.44,66.44,0,0,1-3.2-9.74,76.09,76.09,0,0,1-1.78-9.94,82,82,0,0,1-.54-9,36.69,36.69,0,0,1,.42-4.91,34.89,34.89,0,0,1,1.32-5.72A16.42,16.42,0,0,1,55.47,59,4.35,4.35,0,0,1,59,57a17.07,17.07,0,0,1,2.86.24,37.42,37.42,0,0,1,2-6,22.53,22.53,0,0,1,3.43-5.65,17.3,17.3,0,0,1,5.22-4.21A15.76,15.76,0,0,1,80,39.71ZM90.8,66.92q0-2.78-.23-6.42a46.69,46.69,0,0,0-.93-6.87,21.66,21.66,0,0,0-1.89-5.53c-.8-1.52-1.85-2.28-3.13-2.28A4.63,4.63,0,0,0,81.8,47a19.13,19.13,0,0,0-3,3.08,46.11,46.11,0,0,0-5.41,8.78,39,39,0,0,0-1.71,4.18,10,10,0,0,0-.66,3,16.07,16.07,0,0,0,.23,2.86,8.48,8.48,0,0,1,.15,2.25,2.14,2.14,0,0,1-.65,1.46,3.47,3.47,0,0,1-2.28.54,8.88,8.88,0,0,1-4-.92c-.26,1.44-.45,2.95-.58,4.52s-.2,3.28-.2,5.14c0,.77.09,2.14.28,4.1s.46,4.17.84,6.64.88,5,1.47,7.73a58.89,58.89,0,0,0,2.13,7.39,22.48,22.48,0,0,0,2.82,5.52,4.5,4.5,0,0,0,3.6,2.17q2,0,4-2.4a28.58,28.58,0,0,0,3.75-6.38,73.39,73.39,0,0,0,3.28-9.08q1.52-5.1,2.63-10.52t1.75-10.66A81.64,81.64,0,0,0,90.8,66.92Z"/><path class="cls-2" d="M108.11,63.52a4.91,4.91,0,0,0-.23-1.47,3.28,3.28,0,0,1-.15-1.39,1.46,1.46,0,0,1,.68-1,4.49,4.49,0,0,1,2.32-.42,12.67,12.67,0,0,1,4.68.84,16,16,0,0,1,3.71,2.06,10.39,10.39,0,0,1,2.44,2.51,4.4,4.4,0,0,1,.85,2.17c0,.31-.11,1.23-.31,2.78s-.48,3.48-.81,5.8-.69,4.93-1.08,7.84-.75,5.85-1.09,8.82-.6,5.84-.81,8.66-.3,5.3-.27,7.49a27.62,27.62,0,0,0,.48,5.29c.28,1.34.75,2,1.42,2q1.71,0,4.53-1.93a34.94,34.94,0,0,0,6.06-5.61,67.79,67.79,0,0,0,6.57-9,74.61,74.61,0,0,0,6-12.06,89.37,89.37,0,0,0,4.41-14.84,83.65,83.65,0,0,0,1.71-17.36,12.7,12.7,0,0,0-1.54-6.41,14.65,14.65,0,0,0-3.79-4.46,16,16,0,0,0-4.8-2.59,14.75,14.75,0,0,0-4.65-.84,44.35,44.35,0,0,0-12,1.43,36.08,36.08,0,0,0-8.78,3.63,28.33,28.33,0,0,0-6.1,4.8,39,39,0,0,0-4,4.91,33.4,33.4,0,0,0-2.36,4,8.71,8.71,0,0,1-1.2,2.13,4.8,4.8,0,0,1-2.27,1,17.94,17.94,0,0,1-3.41.54,11.78,11.78,0,0,1-3.08-.15Q90,62.51,90,61.73a8.18,8.18,0,0,1,1.27-3.28,30,30,0,0,1,3.71-5,54.61,54.61,0,0,1,6-5.68,46.3,46.3,0,0,1,8.16-5.32,52.27,52.27,0,0,1,10.09-3.94,43.89,43.89,0,0,1,11.9-1.55c1.14,0,2.7,0,4.68.08a40.06,40.06,0,0,1,6.45.73,36.83,36.83,0,0,1,7,2.12,20.27,20.27,0,0,1,11.17,11.41A28.31,28.31,0,0,1,162.24,62a60.88,60.88,0,0,1-1.55,13.25,78.14,78.14,0,0,1-4.33,13.37A76.3,76.3,0,0,1,149.71,101a56.74,56.74,0,0,1-8.57,10.24,39.56,39.56,0,0,1-10.1,7A25.52,25.52,0,0,1,120,120.81a10.58,10.58,0,0,1-7-2.28,15.84,15.84,0,0,1-4.37-6.11,34,34,0,0,1-2.28-8.69,78.55,78.55,0,0,1-.68-10q0-5.18.34-10.29c.25-3.4.54-6.49.85-9.27s.61-5.12.89-7A33.32,33.32,0,0,0,108.11,63.52Z"/><path class="cls-2" d="M214.17,89.5a6.94,6.94,0,0,1-1,2.85c-.65,1.24-1.35,2.64-2.12,4.22a45.86,45.86,0,0,0-2.13,5.06,16.11,16.11,0,0,0-1,5.41,10.11,10.11,0,0,0,.93,4.56,25.82,25.82,0,0,0,1.71,3,4.84,4.84,0,0,1,.85,1.58c.06.31-.49.47-1.62.47a8.37,8.37,0,0,1-5.45-2.52,14.88,14.88,0,0,1-4.14-7.61c-1.44,1.5-3.11,3.08-5,4.76a71.23,71.23,0,0,1-5.88,4.63,41.56,41.56,0,0,1-5.88,3.52,11.6,11.6,0,0,1-4.94,1.39,9.42,9.42,0,0,1-4.64-1,6.14,6.14,0,0,1-2.48-2.12,12.56,12.56,0,0,1-2.47-1.4,12.91,12.91,0,0,1-2.43-2.24,12.71,12.71,0,0,1-1.9-3,8.45,8.45,0,0,1-.77-3.6,23.15,23.15,0,0,1,.85-6.14A40.92,40.92,0,0,1,167,95a51,51,0,0,1,3.42-6.3,64.32,64.32,0,0,1,4.3-6,10.43,10.43,0,0,1-2.25-.68,7.8,7.8,0,0,1-2.59-1.89,11.18,11.18,0,0,1-2.16-3.79A19.66,19.66,0,0,1,168,63.8a34,34,0,0,1,3.17-6.53,45.13,45.13,0,0,1,10-11.29,27.86,27.86,0,0,1,5.71-3.56,13.21,13.21,0,0,1,5.45-1.32,7.64,7.64,0,0,1,3,.66,10.67,10.67,0,0,1,2.67,1.66,24.75,24.75,0,0,1,1.12-3.48q.81-2.09,1.74-4a30.58,30.58,0,0,1,1.82-3.32c.59-.93,1.07-1.39,1.43-1.39a3,3,0,0,1,1.62.62,11.05,11.05,0,0,1,1.78,1.5A9.35,9.35,0,0,1,209,35.27a4,4,0,0,1,.58,2,6.41,6.41,0,0,1-.93,2.59l-2,3.74c-.72,1.35-1.39,2.7-2,4.07a8.08,8.08,0,0,0-.85,4.9c.05.31-.23.47-.85.47a2.93,2.93,0,0,1-1-.23,5.87,5.87,0,0,1-1.23-.73,7.39,7.39,0,0,1-1.32-1.36,6.45,6.45,0,0,1-1-2.09,4.15,4.15,0,0,1-.78.24,5.62,5.62,0,0,1-.92.08,7.36,7.36,0,0,0-2.82,1.15,40.85,40.85,0,0,0-4.64,3.17c-1.73,1.34-3.54,2.89-5.41,4.64a50.76,50.76,0,0,0-5.18,5.6,33.56,33.56,0,0,0-3.87,6.07,13.79,13.79,0,0,0-1.51,6,10.61,10.61,0,0,0,.39,2.86,4.49,4.49,0,0,0,2.48-.27,16.27,16.27,0,0,0,2.62-1.2c.93-.56,1.88-1.21,2.86-1.93,1.6-1.49,3.17-2.86,4.72-4.09a48.27,48.27,0,0,1,4.45-3.21,23.68,23.68,0,0,1,4-2.09,8.64,8.64,0,0,1,3.21-.73,4.63,4.63,0,0,1,2.28.68,10.22,10.22,0,0,1,2.16,1.72A10.34,10.34,0,0,1,204,69.48a4.38,4.38,0,0,1,.66,2.17c0,.41-.81,1.24-2.43,2.51s-3.68,2.84-6.18,4.74-5.13,4.1-8,6.57a86.34,86.34,0,0,0-8,7.93,45.58,45.58,0,0,0-6.14,8.81,19.63,19.63,0,0,0-2.44,9.24,6.12,6.12,0,0,0,.39,2.28,12.72,12.72,0,0,0,.85,1.74.84.84,0,0,0,.27,0,.84.84,0,0,1,.27,0,9.93,9.93,0,0,0,4.72-1.47,37.27,37.27,0,0,0,5.41-3.75q2.79-2.28,5.57-4.94t5.1-5.11l4.06-4.25a28.64,28.64,0,0,1,2.44-2.36,32.87,32.87,0,0,1,1.27-3.86c.49-1.24,1-2.32,1.43-3.25a16.25,16.25,0,0,1,1.32-2.24c.41-.57.74-.85,1-.85a7.44,7.44,0,0,1,2.9.62,12.12,12.12,0,0,1,2.74,1.54,10.33,10.33,0,0,1,2.06,2A3.48,3.48,0,0,1,214.17,89.5Z"/><path class="cls-2" d="M225.32,44.61q.18,0,.21.09a.16.16,0,0,1-.05.19.66.66,0,0,1-.29.21,1.6,1.6,0,0,1-.53.09,2.82,2.82,0,0,1-1.25-.31,5.5,5.5,0,0,1-1.2-.81,9.27,9.27,0,0,1-1.09-1.17,16.17,16.17,0,0,1-1-1.37c-.3-.47-.57-.94-.82-1.41s-.45-.9-.63-1.29a4.75,4.75,0,0,1-.57.14,9.24,9.24,0,0,0,.2,1.57,9.84,9.84,0,0,0,.34,1.21,5.46,5.46,0,0,0,.35.78,1.77,1.77,0,0,1,.15.31s-.07.1-.18.16a.81.81,0,0,1-.37.09,1.31,1.31,0,0,1-1-.51,4.12,4.12,0,0,1-.75-1.4,10.44,10.44,0,0,1-.46-2.08,20,20,0,0,1-.16-2.56,11.13,11.13,0,0,1,.05-1.28,9.65,9.65,0,0,1,.14-1.19,4.7,4.7,0,0,1,.24-.87.93.93,0,0,1,.35-.43h.41a1.57,1.57,0,0,0,.53.15,2.44,2.44,0,0,1,.46.14c.13.06.19.14.19.24a4.35,4.35,0,0,1-.06.52c0,.25-.09.57-.14,1s-.1.84-.15,1.35-.08,1.08-.1,1.72l.12-.05.12-.07c0-.22,0-.52.06-.9s.07-.79.14-1.24.15-.91.25-1.37A9.11,9.11,0,0,1,219.2,33a3.56,3.56,0,0,1,.53-.93.67.67,0,0,1,.7-.28h.35a1,1,0,0,1,.53-.05,3.63,3.63,0,0,1,.56.09.84.84,0,0,1,.4.2,2,2,0,0,1,.47.82,4.24,4.24,0,0,1,.19,1.42,3,3,0,0,1-.22,1.18,4.33,4.33,0,0,1-.59,1.1,5.73,5.73,0,0,1-.89,1,7.74,7.74,0,0,1-1.1.77c.17.34.38.74.62,1.2s.49.91.78,1.37.58.93.9,1.39a10.2,10.2,0,0,0,1,1.21,5.35,5.35,0,0,0,1,.86A1.7,1.7,0,0,0,225.32,44.61Zm-5.07-12.35a.57.57,0,0,0-.45.3,3.93,3.93,0,0,0-.36.78c-.11.35-.21.71-.29,1.08s-.15.79-.21,1.18-.11.76-.14,1.11-.06.62-.08.83a10.52,10.52,0,0,0,1-.63,5.71,5.71,0,0,0,.89-.81,4.4,4.4,0,0,0,.65-1,2.82,2.82,0,0,0,.26-1.18,2.52,2.52,0,0,0-.12-.86,1.52,1.52,0,0,0-.3-.5.9.9,0,0,0-.4-.23,1.09,1.09,0,0,0-.4-.07Z"/></g></svg>