<svg id="Capa_1" data-name="Capa 1" xmlns="http://www.w3.org/2000/svg" viewBox="0 0 163 163"><defs><style>.cls-1,.cls-2{fill:none;stroke-miterlimit:10;stroke-width:8px;}.cls-1{stroke:#fefefe;}.cls-2{stroke:#fff;}</style></defs><title>mail-8px</title><path class="cls-1" d="M95.09,81.5l11.59,11,20.59,19.62a5.68,5.68,0,0,0,.16-1.32V52.15a5.68,5.68,0,0,0-.16-1.32L106.68,70.45Z"/><path class="cls-1" d="M67.91,81.5l-11.59-11L35.73,50.83a5.68,5.68,0,0,0-.16,1.32v58.7a5.68,5.68,0,0,0,.16,1.32L56.32,92.55Z"/><path class="cls-1" d="M95.09,81.5l11.59-11,20.59-19.62a5.7,5.7,0,0,0-5.54-4.38H41.27a5.7,5.7,0,0,0-5.54,4.38L56.32,70.45l11.59,11"/><path class="cls-1" d="M127.27,112.17,106.68,92.55l-11.59-11-7.24,6.9a9.43,9.43,0,0,1-12.7,0l-7.24-6.9-11.59,11L35.73,112.17a5.7,5.7,0,0,0,5.54,4.38h80.46A5.7,5.7,0,0,0,127.27,112.17Z"/><path class="cls-1" d="M67.91,81.5l7.24,6.9a9.43,9.43,0,0,0,12.7,0l7.24-6.9"/><circle class="cls-2" cx="81.5" cy="81.5" r="77.5"/></svg>