<svg xmlns="http://www.w3.org/2000/svg" viewBox="0 0 126 126"><defs><style>.cls-1{fill:none;stroke:#000;stroke-miterlimit:10;}</style></defs><title>Martial Arts Icon Social</title><g id="Martial_Arts_Icon" data-name="Martial Arts Icon"><ellipse class="cls-1" cx="23.84" cy="46.7" rx="6.43" ry="9.18" transform="translate(-18.62 15.94) rotate(-27.03)"/><circle class="cls-1" cx="29.81" cy="58.18" r="3.21"/><ellipse class="cls-1" cx="106.49" cy="23.74" rx="2.75" ry="7.35"/><ellipse class="cls-1" cx="47.72" cy="109.14" rx="7.35" ry="2.75" transform="translate(-9.74 4.8) rotate(-5.22)"/><path class="cls-1" d="M58.27,46.48,48.64,65.06s-.92,29.39,0,35.82l11-1.84c3.67-48.67,34.89-66.12,34.89-66.12S91.8,24.66,89,25.58,60.57,46.7,60.57,46.7s-10.1-.92-6.42-.92S67,32.92,67,32.92L66.08,32l-3.67-1.83s-10.1,7.34-14.69,9.18-17.45,6.08-17.45,6.08"/><line class="cls-1" x1="38.99" y1="64.14" x2="48.6" y2="66.13"/><line class="cls-1" x1="91.19" y1="26.47" x2="104.69" y2="18.18"/><line class="cls-1" x1="94.55" y1="32" x2="103.82" y2="25.58"/><line class="cls-1" x1="56.18" y1="99.62" x2="55.03" y2="108.47"/><line class="cls-1" x1="50.45" y1="100.57" x2="50.48" y2="106.19"/><path class="cls-1" d="M38.65,63.48c2.08,2.6,2.35,5.85.6,7.26s-4.87.44-7-2.16-3.92-6.22-.6-7.26S36.56,60.88,38.65,63.48Z"/><path class="cls-1" d="M64.34,31.13a3.22,3.22,0,1,1,2.2.87A3.31,3.31,0,0,1,66,32"/></g></svg>