<svg xmlns="http://www.w3.org/2000/svg" viewBox="0 0 126 126"><defs><style>.cls-1{fill:none;stroke:#000;stroke-miterlimit:10;}</style></defs><title>Music Social</title><g id="Music"><path class="cls-1" d="M71.59,13.5s-.7,28.23,31.55,32.34"/><path class="cls-1" d="M76.16,10.84c.16,4.43,2.34,26.71,29.39,31.26"/><path class="cls-1" d="M105.55,42.1a22.79,22.79,0,1,0-41.38-1.79,6.88,6.88,0,0,1,1.92,1L80.71,52.19a6.79,6.79,0,0,1,1.87,2.14,21.54,21.54,0,0,0,2.68.18A22.78,22.78,0,0,0,105.55,42.1"/><path class="cls-1" d="M24.57,103.53a3.35,3.35,0,0,0-1.18,1l-4.76,6.4A3.42,3.42,0,1,0,24.11,115l4.76-6.4a3.36,3.36,0,0,0,.6-1.34,9.38,9.38,0,0,1-3-1.62A9,9,0,0,1,24.57,103.53Z"/><path class="cls-1" d="M29.47,107.25a9.42,9.42,0,0,0,10.25-3L70,66.93A9.3,9.3,0,0,0,72,62.73L58.41,52.63a9.37,9.37,0,0,0-3,2.43L25.1,92.39a9.46,9.46,0,0,0-.53,11.14"/><path class="cls-1" d="M24.57,103.53a9,9,0,0,0,1.91,2.1,9.38,9.38,0,0,0,3,1.62"/><path class="cls-1" d="M64.17,40.31a6.83,6.83,0,0,0-6.25,12l.49.36"/><path class="cls-1" d="M72,62.73l.57.42a6.83,6.83,0,0,0,10-8.82"/><path class="cls-1" d="M82.58,54.33a6.79,6.79,0,0,0-1.87-2.14L66.09,41.3a6.88,6.88,0,0,0-1.92-1"/><line class="cls-1" x1="58.41" y1="52.63" x2="71.97" y2="62.73"/><rect class="cls-1" x="44.68" y="72.75" width="5.62" height="12.75" rx="2.81" ry="2.81" transform="translate(61.58 -12.08) rotate(39.75)"/><circle class="cls-1" cx="45.54" cy="81.57" r="2.75"/></g></svg>