<svg xmlns="http://www.w3.org/2000/svg" viewBox="0 0 126 126"><defs><style>.cls-1,.cls-2,.cls-3{fill:none;stroke:#000;}.cls-1,.cls-3{stroke-linecap:round;}.cls-1,.cls-2{stroke-miterlimit:10;}.cls-3{stroke-linejoin:round;}</style></defs><title>Off Licence Social</title><g id="Off_Licence" data-name="Off Licence"><path class="cls-1" d="M78.08,110.8c0,1.16-14.75,4.35-26.68.21"/><path class="cls-2" d="M78.08,103.66c0,1.16-6,2.11-13.3,2.11s-13.29-1-13.29-2.11"/><path class="cls-2" d="M75.55,57c1.59.54,2.53,1.21,2.53,1.93,0,1.83-6,3.3-13.3,3.3s-13.29-1.47-13.29-3.3,5.95-3.3,13.29-3.3A36.07,36.07,0,0,1,75.55,57"/><path class="cls-3" d="M78,67.34c-.38,1.11-5.87,2-13.22,2s-13.29-.94-13.29-2.11"/><line class="cls-2" x1="51.49" y1="58.94" x2="51.4" y2="111.01"/><path class="cls-1" d="M51.58,61a38.14,38.14,0,0,1-16.79-.24l-.12,36.66a39.38,39.38,0,0,0,16.71.08Z"/><path class="cls-2" d="M96.68,105.8c0,1-11.86,2.42-18.6,1.48"/><path class="cls-2" d="M96.68,98.65c0,1-11.23,2.7-18.6,1.83"/><ellipse class="cls-2" cx="82.81" cy="54.22" rx="13.87" ry="3.02"/><path class="cls-2" d="M96.68,62.27c0,1.17-6.21,2.11-13.87,2.11-1.67,0-3.29,0-4.81-.14"/><line class="cls-2" x1="96.68" y1="54.22" x2="96.68" y2="105.8"/><path class="cls-2" d="M47.6,28.31c-1.8.13-3.81.21-5.94.21-1.62,0-3.18,0-4.63-.12"/><path class="cls-2" d="M47.6,18.05c-1.8.13-3.81.2-5.94.2-1.62,0-3.18,0-4.63-.12"/><path class="cls-1" d="M47.6,18.05l.22,21.83a21.25,21.25,0,0,1,9.91,16.27"/><path class="cls-3" d="M37,18.13l-.12,21.75c-6.16,3.58-10,10.35-10,18.35v47c5.87,5,22,4.41,24.28,3.62"/><path class="cls-2" d="M38.34,18.06v-4.5C38.35,10.72,40,8.4,42,8.4h.69c2,0,3.62,2.32,3.62,5.16l0,4.46s-2.33.21-4,.2S38.34,18.06,38.34,18.06Z"/><line class="cls-3" x1="78.06" y1="59.13" x2="78.08" y2="110.8"/></g></svg>