<svg xmlns="http://www.w3.org/2000/svg" viewBox="0 0 126 126"><defs><style>.cls-1{fill:none;stroke:#000;stroke-miterlimit:10;}</style></defs><title>Pets Social</title><g id="Animal"><path class="cls-1" d="M99.66,95.83c0,11.78-9,12.91-22.44,10.4a109.12,109.12,0,0,0-14.72-1.8,109.18,109.18,0,0,0-14.71,1.8c-13.4,2.51-22.44,1.38-22.44-10.4s13.77-11.28,21-27.14c6.12-13.48,11.36-15.6,16.19-15.6s10.08,2.12,16.2,15.6C85.89,84.55,99.66,84.08,99.66,95.83Z"/><ellipse class="cls-1" cx="26.56" cy="60.93" rx="8.96" ry="14.73" transform="translate(-23.26 16.93) rotate(-25)"/><ellipse class="cls-1" cx="47.89" cy="33.82" rx="9.57" ry="15.72" transform="translate(-5.14 8.83) rotate(-10)"/><ellipse class="cls-1" cx="98.77" cy="60.93" rx="14.73" ry="8.96" transform="translate(1.81 124.69) rotate(-65)"/><ellipse class="cls-1" cx="77.44" cy="33.82" rx="15.72" ry="9.57" transform="translate(30.69 104.21) rotate(-80)"/></g></svg>