<svg xmlns="http://www.w3.org/2000/svg" viewBox="0 0 126 126"><defs><style>.cls-1{fill:none;stroke:#333;stroke-miterlimit:10;}</style></defs><title>Pizza Social</title><g id="Pizza"><path class="cls-1" d="M19.28,86c-.3,1.26-.59,2.53-.86,3.81a12,12,0,0,0,1.65-.14c2.63-.42,4.58-1.54,4.35-2.54S21.91,85.68,19.28,86Z"/><path class="cls-1" d="M110.63,60.43a4.3,4.3,0,0,1-2.53-1.28c-9.11-10.37-33-21.72-62.92-27-2.55-.45-3-2.4-2.39-4.27s1.88-3,4.54-2.47c33,6.21,58,19,68,30.56,1.24,1.42.54,3.23-1.47,4.1A5.9,5.9,0,0,1,110.63,60.43Z"/><path class="cls-1" d="M43.58,31.68A152.46,152.46,0,0,0,16.92,96.27a28.7,28.7,0,0,0-.45,6.93,2.69,2.69,0,0,0,2.06,2.24,1.06,1.06,0,0,0,1-.53,3.87,3.87,0,0,0,.61-1.77,4.6,4.6,0,0,0-.91-2.71A5.25,5.25,0,0,1,18.19,98a5.92,5.92,0,0,1,2.18-4.75,3.12,3.12,0,0,1,4-.29,6.82,6.82,0,0,1,3.09,4.78,3,3,0,0,0,2.14,2.47c.44.09,1.19.09,1.4-1s-.36-1.74-1.4-2.75a6.53,6.53,0,0,1-2.18-3.29c-.61-2.86.35-4.94,2.91-6.13a4.11,4.11,0,0,1,4,.4,4.48,4.48,0,0,1,1.95,3.12,3.47,3.47,0,0,0,1.49,2.58,1.07,1.07,0,0,0,1.21,0,.86.86,0,0,0,.4-.72c0-.62-.63-1.54-1.76-2.53a6,6,0,0,1-1.76-4c0-.26,0-.51,0-.77a4.84,4.84,0,0,1,2.34-4.35c2.12-1.14,4.3-2.25,6.52-3.32l4.14-1.89a16.12,16.12,0,0,1,2.37-.91,5.06,5.06,0,0,1,4.39.74,3.87,3.87,0,0,1,1.74,3.11,4.17,4.17,0,0,0,1.2,3.27.58.58,0,0,0,.63,0A1.7,1.7,0,0,0,60,80.51a3.62,3.62,0,0,0-.39-3.43c-.6-1.1-1.83-2.16-1.81-2.63a4.94,4.94,0,0,1,3.21-4,214.23,214.23,0,0,1,46.59-11.56C97.75,48.12,74.26,36.8,43.58,31.68Z"/><path class="cls-1" d="M115.79,56.86c.68,1.1-.37,2.5-2.27,3.17s-4,.35-4.65-.74.25-2.57,2.17-3.24S115.12,55.76,115.79,56.86Z"/><path class="cls-1" d="M63.28,46.58c0,.89-2.79,1.44-6.19,1.28s-6.19-1-6.24-2,2.72-1.56,6.19-1.36S63.3,45.68,63.28,46.58Z"/><path class="cls-1" d="M32.78,50.13c-.6,1.14-1.18,2.27-1.75,3.42a16.94,16.94,0,0,0,2,.07c3.29,0,5.86-.83,5.75-1.78S36,50.14,32.78,50.13Z"/><path class="cls-1" d="M70.27,63.61c-.06.88-2.6,1.49-5.66,1.41s-5.55-.84-5.56-1.75,2.52-1.6,5.66-1.48S70.34,62.73,70.27,63.61Z"/><path class="cls-1" d="M38.77,71.29c.12,1-2.15,1.87-5.06,2.08S28.28,73,28.08,72s2.06-2,5.05-2.15S38.64,70.34,38.77,71.29Z"/><path class="cls-1" d="M81.66,57.54a1,1,0,0,1-1.53-.24c-.46-1-.91-2.13-1.68-1.68l0,0-.79.45a1.08,1.08,0,0,1-1.3-.18l-1.18-1.35a.68.68,0,0,1,.2-1.07l.79-.46c.78-.45-.41-1.18-1.43-1.89a.7.7,0,0,1,.2-1.29C80.8,47.79,86.12,54.05,81.66,57.54Z"/><path class="cls-1" d="M50.83,62.9a.85.85,0,0,1-1.25.7c-1.11-.51-2.36-1.18-2.5-.35h0c0,.28-.1.56-.14.84a.82.82,0,0,1-1,.62L44,64.32a.9.9,0,0,1-.74-1c0-.28.08-.56.13-.84.13-.84-1.26-.72-2.49-.69a.94.94,0,0,1-1-1.18C41.83,55.46,50.93,57.49,50.83,62.9Z"/><path class="cls-1" d="M58,74.39c15.88-7,34.65-12.35,52.61-14"/><path class="cls-1" d="M35.9,85.24c9-6,11.43-6.57,19.81-9.86"/><path class="cls-1" d="M27.33,90.75c2.05-1.46,3.38-2.33,5.84-3.92"/><path class="cls-1" d="M18.5,96.5s2.09-1.39,5.79-3.62"/></g></svg>