<svg xmlns="http://www.w3.org/2000/svg" viewBox="0 0 126 126"><defs><style>.cls-1,.cls-2{fill:none;stroke:#333;stroke-miterlimit:10;}.cls-2{stroke-linecap:round;}</style></defs><title>Plumber Social</title><g id="Plumbing"><path class="cls-1" d="M66.56,80.79c.71,0,1.3-.86,1.29-1.92V74.64c0-1-.6-1.91-1.31-1.9l-7.3,0c-.72,0-1.3.87-1.3,1.92l0,4.23c0,1,.59,1.91,1.31,1.91Z"/><path class="cls-1" d="M59,72.71l-.2-54.94a3.87,3.87,0,0,1,3.84-3.87h0a3.87,3.87,0,0,1,3.87,3.84l.19,54.94Z"/><rect class="cls-1" x="60.24" y="79.59" width="5.51" height="60" rx="2.13" ry="2.13" transform="translate(172.59 46.59) rotate(90)"/><path class="cls-1" d="M91.07,106.48C91,92.24,78.41,80.75,62.91,80.8s-28,11.64-28,25.88Z"/><path class="cls-2" d="M43.14,106.5A27.35,27.35,0,0,1,45.68,95"/></g></svg>