<svg xmlns="http://www.w3.org/2000/svg" viewBox="0 0 126 126"><defs><style>.cls-1{fill:none;stroke:#000;stroke-miterlimit:10;stroke-width:0.5px;}</style></defs><title>Pool Social</title><g id="Pool"><path d="M72,70.25A8.75,8.75,0,1,1,63.25,79,8.77,8.77,0,0,1,72,70.25m0-.5A9.25,9.25,0,1,0,81.25,79,9.25,9.25,0,0,0,72,69.75Z"/><path d="M27,85.75a8.75,8.75,0,1,1-8.75,8.75A8.77,8.77,0,0,1,27,85.75m0-.5a9.25,9.25,0,1,0,9.25,9.25A9.25,9.25,0,0,0,27,85.25Z"/><path d="M63,23.25A8.75,8.75,0,1,1,54.25,32,8.77,8.77,0,0,1,63,23.25m0-.5A9.25,9.25,0,1,0,72.25,32,9.25,9.25,0,0,0,63,22.75Z"/><path d="M72,39a8.75,8.75,0,1,1-8.75,8.75A8.76,8.76,0,0,1,72,39m0-.5a9.25,9.25,0,1,0,9.25,9.25A9.25,9.25,0,0,0,72,38.46Z"/><path d="M54,39a8.75,8.75,0,1,1-8.75,8.75A8.76,8.76,0,0,1,54,39m0-.5a9.25,9.25,0,1,0,9.25,9.25A9.25,9.25,0,0,0,54,38.46Z"/><path d="M45,54.25A8.75,8.75,0,1,1,36.25,63,8.77,8.77,0,0,1,45,54.25m0-.5A9.25,9.25,0,1,0,54.25,63,9.25,9.25,0,0,0,45,53.75Z"/><path d="M63,54.25A8.75,8.75,0,1,1,54.25,63,8.77,8.77,0,0,1,63,54.25m0-.5A9.25,9.25,0,1,0,72.25,63,9.25,9.25,0,0,0,63,53.75Z"/><path d="M81,54.25A8.75,8.75,0,1,1,72.25,63,8.77,8.77,0,0,1,81,54.25m0-.5A9.25,9.25,0,1,0,90.25,63,9.25,9.25,0,0,0,81,53.75Z"/><path d="M90,70.25A8.75,8.75,0,1,1,81.25,79,8.77,8.77,0,0,1,90,70.25m0-.5A9.25,9.25,0,1,0,99.25,79,9.25,9.25,0,0,0,90,69.75Z"/><path d="M54,70.25A8.75,8.75,0,1,1,45.25,79,8.77,8.77,0,0,1,54,70.25m0-.5A9.25,9.25,0,1,0,63.25,79,9.25,9.25,0,0,0,54,69.75Z"/><path d="M36,70.25A8.75,8.75,0,1,1,27.25,79,8.77,8.77,0,0,1,36,70.25m0-.5A9.25,9.25,0,1,0,45.25,79,9.25,9.25,0,0,0,36,69.75Z"/><path d="M45,85.75a8.75,8.75,0,1,1-8.75,8.75A8.77,8.77,0,0,1,45,85.75m0-.5a9.25,9.25,0,1,0,9.25,9.25A9.25,9.25,0,0,0,45,85.25Z"/><path d="M63,85.75a8.75,8.75,0,1,1-8.75,8.75A8.77,8.77,0,0,1,63,85.75m0-.5a9.25,9.25,0,1,0,9.25,9.25A9.25,9.25,0,0,0,63,85.25Z"/><path d="M81,85.75a8.75,8.75,0,1,1-8.75,8.75A8.77,8.77,0,0,1,81,85.75m0-.5a9.25,9.25,0,1,0,9.25,9.25A9.25,9.25,0,0,0,81,85.25Z"/><path d="M99,85.75a8.75,8.75,0,1,1-8.75,8.75A8.77,8.77,0,0,1,99,85.75m0-.5a9.25,9.25,0,1,0,9.25,9.25A9.25,9.25,0,0,0,99,85.25Z"/><path class="cls-1" d="M27.73,109.88A15.53,15.53,0,0,1,16.39,105a16,16,0,0,1-4.39-11,15.86,15.86,0,0,1,2.11-7.86L49.38,24.77a15.69,15.69,0,0,1,27.23,0l35.28,61.46A15.86,15.86,0,0,1,114,94.09a16,16,0,0,1-4.39,11,15.53,15.53,0,0,1-11.34,4.84Z"/><path class="cls-1" d="M54.59,27.76,19.32,89.22a9.77,9.77,0,0,0,8.41,14.66H98.27a9.77,9.77,0,0,0,8.41-14.66L71.41,27.76a9.68,9.68,0,0,0-16.82,0L19.32,89.22a9.77,9.77,0,0,0,8.41,14.66H98.27a9.77,9.77,0,0,0,8.41-14.66L71.41,27.76A9.68,9.68,0,0,0,54.59,27.76Z"/></g></svg>