<svg xmlns="http://www.w3.org/2000/svg" viewBox="0 0 126 126"><defs><style>.cls-1{fill:none;stroke:#000;stroke-linecap:round;stroke-linejoin:round;}</style></defs><title>Pub Social</title><g id="Pub"><path class="cls-1" d="M62.72,34.76A19.28,19.28,0,0,1,64.47,43c0,7.92-4.35,14.33-9.71,14.33S45.05,50.88,45.05,43a19.4,19.4,0,0,1,1.47-7.58"/><path class="cls-1" d="M46.52,35.38c-1.23.46-1.94.37-1.94-1.66,0-7.48,7.86-14.95,15.34-14.95A13.54,13.54,0,0,1,73.47,32.31c0,7.14-2.74,15.91-9.48,16.7"/><path class="cls-1" d="M62.72,34.76c-3.75,0-8.51-1.52-12.11-.84a23,23,0,0,0-4.09,1.46"/><path class="cls-1" d="M44.39,93.79c-2.12-1.73-8.9-1.45-9.9,5.23-.61,4.12-5.89-7-9.65-14.24s4.39-15.66,9.4-23.49a21.46,21.46,0,0,1,12.28-9.4"/><path class="cls-1" d="M48.51,101.58a9.18,9.18,0,0,0,3.9,2c7.51,1.88,16.6-1.09,16.6-1.09"/><path class="cls-1" d="M44.58,72.08S41.44,83.84,43,88.54c.75,2.24,1.21,5.35,2.31,8.18"/><path class="cls-1" d="M67.41,47.75s9.12,1.75,13.81,4.44S100.33,62.05,101,69.05a58.72,58.72,0,0,1-1,14.66"/><ellipse class="cls-1" cx="90.37" cy="91.67" rx="8.36" ry="5.95"/><circle class="cls-1" cx="42.57" cy="102" r="5.95"/><path class="cls-1" d="M90.62,72.52c0,1-4.84,3.49-10.81,3.49S69,73.48,69,72.52s4.84-1.76,10.8-1.76S90.62,71.55,90.62,72.52Z"/><path class="cls-1" d="M90.62,79.52c0,1-4.84,3.5-10.81,3.5S69,80.49,69,79.52"/><path class="cls-1" d="M90.62,103.54c0,1-4.84,3.49-10.81,3.49S69,104.51,69,103.54"/><line class="cls-1" x1="69.01" y1="72.52" x2="69.01" y2="103.54"/><line class="cls-1" x1="90.62" y1="97.62" x2="90.62" y2="103.54"/><line class="cls-1" x1="90.62" y1="78.21" x2="90.62" y2="85.72"/><line class="cls-1" x1="90.62" y1="72.52" x2="90.62" y2="78.21"/><path class="cls-1" d="M90.62,101.86s11.62-.18,12.45-6.1c2.29-16.33-11.78-14.42-11.78-14.42"/></g></svg>