<svg id="Layer_1" data-name="Layer 1" xmlns="http://www.w3.org/2000/svg" xmlns:xlink="http://www.w3.org/1999/xlink" viewBox="0 0 30 30"><defs><style>.cls-1,.cls-2{fill:none;}.cls-2{stroke:#000;stroke-width:0.3px;}.cls-3{opacity:0.5;}.cls-4{fill:url(#black_);}</style><pattern id="black_" data-name="black " width="57.6" height="57.6" patternTransform="matrix(0.3, 0, 0, -0.29, -19.94, 1106.74)" patternUnits="userSpaceOnUse" viewBox="0 0 57.6 57.6"><rect class="cls-1" width="57.6" height="57.6"/><rect class="cls-1" width="57.6" height="57.6"/><line class="cls-2" x1="52.5" y1="54" x2="55.5" y2="54"/><line class="cls-2" x1="38.1" y1="54" x2="41.1" y2="54"/><line class="cls-2" x1="23.7" y1="54" x2="26.7" y2="54"/><line class="cls-2" x1="9.3" y1="54" x2="12.3" y2="54"/><line class="cls-2" x1="45.3" y1="46.8" x2="48.3" y2="46.8"/><line class="cls-2" x1="30.9" y1="46.8" x2="33.9" y2="46.8"/><line class="cls-2" x1="16.5" y1="46.8" x2="19.5" y2="46.8"/><line class="cls-2" x1="2.1" y1="46.8" x2="5.1" y2="46.8"/><line class="cls-2" x1="52.5" y1="39.6" x2="55.5" y2="39.6"/><line class="cls-2" x1="38.1" y1="39.6" x2="41.1" y2="39.6"/><line class="cls-2" x1="23.7" y1="39.6" x2="26.7" y2="39.6"/><line class="cls-2" x1="9.3" y1="39.6" x2="12.3" y2="39.6"/><line class="cls-2" x1="45.3" y1="32.4" x2="48.3" y2="32.4"/><line class="cls-2" x1="30.9" y1="32.4" x2="33.9" y2="32.4"/><line class="cls-2" x1="16.5" y1="32.4" x2="19.5" y2="32.4"/><line class="cls-2" x1="2.1" y1="32.4" x2="5.1" y2="32.4"/><line class="cls-2" x1="52.5" y1="25.2" x2="55.5" y2="25.2"/><line class="cls-2" x1="38.1" y1="25.2" x2="41.1" y2="25.2"/><line class="cls-2" x1="23.7" y1="25.2" x2="26.7" y2="25.2"/><line class="cls-2" x1="9.3" y1="25.2" x2="12.3" y2="25.2"/><line class="cls-2" x1="45.3" y1="18" x2="48.3" y2="18"/><line class="cls-2" x1="30.9" y1="18" x2="33.9" y2="18"/><line class="cls-2" x1="16.5" y1="18" x2="19.5" y2="18"/><line class="cls-2" x1="2.1" y1="18" x2="5.1" y2="18"/><line class="cls-2" x1="52.5" y1="10.8" x2="55.5" y2="10.8"/><line class="cls-2" x1="38.1" y1="10.8" x2="41.1" y2="10.8"/><line class="cls-2" x1="23.7" y1="10.8" x2="26.7" y2="10.8"/><line class="cls-2" x1="9.3" y1="10.8" x2="12.3" y2="10.8"/><line class="cls-2" x1="45.3" y1="3.6" x2="48.3" y2="3.6"/><line class="cls-2" x1="30.9" y1="3.6" x2="33.9" y2="3.6"/><line class="cls-2" x1="16.5" y1="3.6" x2="19.5" y2="3.6"/><line class="cls-2" x1="2.1" y1="3.6" x2="5.1" y2="3.6"/><line class="cls-2" x1="54" y1="55.5" x2="54" y2="52.5"/><line class="cls-2" x1="39.6" y1="55.5" x2="39.6" y2="52.5"/><line class="cls-2" x1="25.2" y1="55.5" x2="25.2" y2="52.5"/><line class="cls-2" x1="10.8" y1="55.5" x2="10.8" y2="52.5"/><line class="cls-2" x1="46.8" y1="48.3" x2="46.8" y2="45.3"/><line class="cls-2" x1="32.4" y1="48.3" x2="32.4" y2="45.3"/><line class="cls-2" x1="18" y1="48.3" x2="18" y2="45.3"/><line class="cls-2" x1="3.6" y1="48.3" x2="3.6" y2="45.3"/><line class="cls-2" x1="54" y1="41.1" x2="54" y2="38.1"/><line class="cls-2" x1="39.6" y1="41.1" x2="39.6" y2="38.1"/><line class="cls-2" x1="25.2" y1="41.1" x2="25.2" y2="38.1"/><line class="cls-2" x1="10.8" y1="41.1" x2="10.8" y2="38.1"/><line class="cls-2" x1="46.8" y1="33.9" x2="46.8" y2="30.9"/><line class="cls-2" x1="32.4" y1="33.9" x2="32.4" y2="30.9"/><line class="cls-2" x1="18" y1="33.9" x2="18" y2="30.9"/><line class="cls-2" x1="3.6" y1="33.9" x2="3.6" y2="30.9"/><line class="cls-2" x1="54" y1="26.7" x2="54" y2="23.7"/><line class="cls-2" x1="39.6" y1="26.7" x2="39.6" y2="23.7"/><line class="cls-2" x1="25.2" y1="26.7" x2="25.2" y2="23.7"/><line class="cls-2" x1="10.8" y1="26.7" x2="10.8" y2="23.7"/><line class="cls-2" x1="46.8" y1="19.5" x2="46.8" y2="16.5"/><line class="cls-2" x1="32.4" y1="19.5" x2="32.4" y2="16.5"/><line class="cls-2" x1="18" y1="19.5" x2="18" y2="16.5"/><line class="cls-2" x1="3.6" y1="19.5" x2="3.6" y2="16.5"/><line class="cls-2" x1="54" y1="12.3" x2="54" y2="9.3"/><line class="cls-2" x1="39.6" y1="12.3" x2="39.6" y2="9.3"/><line class="cls-2" x1="25.2" y1="12.3" x2="25.2" y2="9.3"/><line class="cls-2" x1="10.8" y1="12.3" x2="10.8" y2="9.3"/><line class="cls-2" x1="46.8" y1="5.1" x2="46.8" y2="2.1"/><line class="cls-2" x1="32.4" y1="5.1" x2="32.4" y2="2.1"/><line class="cls-2" x1="18" y1="5.1" x2="18" y2="2.1"/><line class="cls-2" x1="3.6" y1="5.1" x2="3.6" y2="2.1"/></pattern></defs><title>RepeatingPattern</title><g id="Holding_Page" data-name="Holding Page" class="cls-3"><rect class="cls-4" width="30" height="30"/></g></svg>