<svg xmlns="http://www.w3.org/2000/svg" viewBox="0 0 126 126"><defs><style>.cls-1,.cls-2{fill:none;stroke:#000;stroke-miterlimit:10;}.cls-2{stroke-linecap:round;}</style></defs><title>Shisha Social</title><g id="Shisha"><path class="cls-1" d="M73.15,71.81c11.68,2.9,20.14,11.32,20.14,21.26,0,12.34-13,22.34-29.11,22.34-15.08,0-27.41-8.33-28.9-19.6"/><path class="cls-1" d="M35.68,88.21c2-7.45,8.83-13.24,17.93-16"/><path class="cls-1" d="M74,67.86a7.37,7.37,0,0,1,.05.82c0,4.62-4.89,7.49-10.92,7.49S52.18,73.3,52.18,68.68c0-3.37,2.59-6.28,6.33-7.61"/><path class="cls-1" d="M67.67,61.07a11.16,11.16,0,0,1,3.65,2.1"/><path class="cls-1" d="M69,31.28a4.72,4.72,0,0,1,1.34,3.23c0,3.09-3.26,5.42-7.28,5.42s-7.27-2.33-7.27-5.42a4.8,4.8,0,0,1,1.42-3.32"/><path class="cls-1" d="M67.9,38.61a3.87,3.87,0,0,1,.32,1.52v19a3.78,3.78,0,0,1-3.77,3.76H61.73A3.77,3.77,0,0,1,58,59.13v-19a3.79,3.79,0,0,1,.3-1.47"/><path class="cls-1" d="M81.72,24.8a2,2,0,0,1,.38,1.13C82.1,29,73,31.5,62.34,31.56S43.9,29,43.9,25.93a1.79,1.79,0,0,1,.09-.57"/><path class="cls-1" d="M49.3,23.43c-5.12.25-8.41.65-8.41,1.1,0,.77,9.77,1.4,21.83,1.4s21.84-.63,21.84-1.4c0-.36-3.71-.68-7.79-.92"/><path class="cls-1" d="M79,58.5l-7,3.81c-.86.47-.95,1.86-.22,3.1l.6,1c.74,1.24,2,1.87,2.89,1.41l7-3.81c.86-.46.95-1.86.22-3.1l-.6-1C81.17,58.67,79.87,58,79,58.5Z"/><path class="cls-1" d="M61.15,80.9l-7.89,1.66c-1,.2-1.35,2-.88,4.11l.39,1.68c.47,2.06,1.64,3.59,2.6,3.39l7.89-1.66c1-.2,1.35-2,.88-4.11l-.38-1.68C63.28,82.22,62.11,80.7,61.15,80.9Z"/><path class="cls-2" d="M101.9,60.38c-6.32.69-7.82-4.2-18.9,2.51"/><path class="cls-1" d="M80.62,58.63a18.16,18.16,0,0,1,11-5.87,26.21,26.21,0,0,1,7.55.33c2.43.42,6.88.78,8.6,2.69,1.88,2.08.92,5.6-.43,7.72A8.55,8.55,0,0,1,100,67.43c-12.88,0-8-1.56-20.21,6.72"/><path class="cls-1" d="M36.53,95.45a40.4,40.4,0,0,1,6.79-2L54.15,91.2"/><path class="cls-2" d="M29.88,102.27c0-5.35,1.92-5,6.65-6.82"/><path class="cls-1" d="M63.29,82.23l6.46-1a2.43,2.43,0,0,1,2.82,1.88h0A2.32,2.32,0,0,1,71,86l-6.46,1.06"/><path class="cls-1" d="M47.72,17a4.6,4.6,0,0,0,0,1.05,10.54,10.54,0,0,0,3.52,7.67s8.71.28,11.93.25,11.79-.27,11.79-.27a10,10,0,0,0,3.58-7.65,7,7,0,0,0-.06-1.21s-4.28.67-15.35.74S47.72,17,47.72,17Z"/><ellipse class="cls-1" cx="62.72" cy="15.67" rx="19.34" ry="1.93"/><path class="cls-1" d="M52.18,84.74s-22.39,4-27,7a8.33,8.33,0,0,0-3.57,4.4,10,10,0,0,0,.38,5.76,16.92,16.92,0,0,0,2.36,5,5.45,5.45,0,0,0,2.26,2c2.57.93,5.89-1.68,7.44-3.33a29.51,29.51,0,0,0,3.06-3.9"/></g></svg>