<svg xmlns="http://www.w3.org/2000/svg" viewBox="0 0 126 126"><defs><style>.cls-1{fill:none;stroke:#000;stroke-miterlimit:10;}</style></defs><title>Shopping Social</title><g id="Shopping_Bags" data-name="Shopping Bags"><path class="cls-1" d="M86.78,46.11c0-17.51-10.84-31.67-25-31.67h0c-14.12,0-25.1,14.16-25.1,31.67"/><polyline class="cls-1" points="26.25 84.56 51.02 90.04 26.5 90.04"/><line class="cls-1" x1="72.48" y1="90.04" x2="88.46" y2="90.04"/><path class="cls-1" d="M65.83,15a20.72,20.72,0,0,1,4.6-.51"/><path class="cls-1" d="M45.09,42.1c.9-8.83,4.72-16.52,10.23-21.54"/><path class="cls-1" d="M44.89,46.11c0-1.36.07-2.7.2-4"/><path class="cls-1" d="M95,47.13c0-17.51-10.4-32.69-24.52-32.69"/><path class="cls-1" d="M49.13,45.53c1.19-13,8-23.66,16.63-26.27"/><path class="cls-1" d="M89.86,45.88C89.29,34.61,84.37,25.12,77.19,21"/><line class="cls-1" x1="36.81" y1="43.32" x2="28.54" y2="45.09"/><polyline class="cls-1" points="45.09 42.1 42.85 42.02 41.53 42.3"/><line class="cls-1" x1="82.21" y1="43.4" x2="49.54" y2="42.26"/><line class="cls-1" x1="89.67" y1="43.67" x2="86.78" y2="43.56"/><line class="cls-1" x1="101.08" y1="44.07" x2="94.95" y2="43.85"/><path class="cls-1" d="M93.93,111.5s-3.06-13.28-5.11-16.35,4.09-38.82,4.09-50.06c-2,.81-5.76,1.3-10.47,1.56"/><path class="cls-1" d="M48.94,46.3c-2.61-.12-5.1-.25-7.39-.38"/><path class="cls-1" d="M82.44,46.65c-9.36.52-22.53.16-33.5-.35"/><path class="cls-1" d="M41.55,45.92c.76-15.14,9.72-27.07,20.78-27.07"/><path class="cls-1" d="M82.44,46.65c-.49-15.48-9-27.8-20.18-27.8"/><path class="cls-1" d="M41.55,45.92c-7.66-.43-13-.83-13-.83-4.08,10.22-2,45-2,45s-8.18,12.26-9.2,14.31l76.63,7.15,7.15-5.85L97,91.71l4.08-47.64-8.25,4.09"/></g></svg>