<svg xmlns="http://www.w3.org/2000/svg" viewBox="0 0 126 126"><defs><style>.cls-1{fill:none;stroke:#000;stroke-miterlimit:10;}</style></defs><title>Spa Icon Social</title><g id="Spa_Icon" data-name="Spa Icon"><path class="cls-1" d="M36.85,89.14c.54-2.17,4.45-2.54,9.06-1.77,5.47.92,9.59,2.5,7.48,5.41a4.56,4.56,0,0,1-4.81,2.29C46.7,94.88,36.48,90.68,36.85,89.14Z"/><path class="cls-1" d="M87.56,91.37c-.31-2.22-3.57-2.87-8.81-2.44-5.53.45-9.82,1.27-8,4.38a4.58,4.58,0,0,0,4.55,2.77C77.18,96.07,87.78,92.93,87.56,91.37Z"/><path class="cls-1" d="M86.4,92.61c8.72.16,12.21.73,14.76,1.55,5.07,1.63,8.2,13.84-1.25,16.16C88.63,113.1,59.85,99.55,49.83,95"/><path class="cls-1" d="M41.88,92.61c-8.72.16-16,.73-18.52,1.55-5.06,1.63-8.19,13.84,1.26,16.16,7.63,1.88,27-3.71,39.45-8.95"/><line class="cls-1" x1="54.3" y1="91.99" x2="70.42" y2="92.67"/><ellipse class="cls-1" cx="62.52" cy="27.38" rx="10.65" ry="13.84"/><path class="cls-1" d="M49.58,81.47a42.68,42.68,0,0,1-1,6.34"/><path class="cls-1" d="M75.89,81.47a28.59,28.59,0,0,0,.41,7.35"/><path class="cls-1" d="M69.64,61.4c0,3.52-1.74,6.38-3.89,6.38s-2.7-2.86-2.7-6.38S63.61,55,65.75,55,69.64,57.87,69.64,61.4Z"/><path class="cls-1" d="M55.77,61.4c0,3.52,1.74,6.38,3.89,6.38s2.7-2.86,2.7-6.38S61.8,55,59.66,55,55.77,57.87,55.77,61.4Z"/><path class="cls-1" d="M49.67,73.88c.45-.93,5.43-7.35,5.91-7.35.85,0,1.76,1,2.83,1.4a3.59,3.59,0,0,0,3.09-.64c.88,1.7-.13,6.75-1,9.68-1.3,4.39-3.68,7.35-5.8,6.9l-.11-.05S42.88,79.56,40.75,75.3s-3.19-18.1-1.06-24.49,10.65-5.32,13.84-8.52A9.6,9.6,0,0,0,56,38.7"/><path class="cls-1" d="M75.54,73.88c-.46-.93-5.43-7.35-5.91-7.35-.85,0-1.77,1-2.83,1.4a3.59,3.59,0,0,1-3.09-.64c-.88,1.7.13,6.75,1,9.68,1.3,4.39,3.68,7.35,5.8,6.9l.11-.05s11.72-4.26,13.85-8.52,3.19-18.1,1.06-24.49-10.65-5.32-13.84-8.52a9.6,9.6,0,0,1-2.42-3.59"/></g></svg>