<svg xmlns="http://www.w3.org/2000/svg" viewBox="0 0 126 126"><defs><style>.cls-1,.cls-2{fill:none;stroke:#000;}.cls-1{stroke-miterlimit:10;}.cls-2{stroke-linecap:round;stroke-linejoin:round;}</style></defs><title>Sparky Social</title><g id="Sparky"><rect class="cls-1" x="47.66" y="45.96" width="30.67" height="10.01" rx="4.55" ry="4.55"/><rect class="cls-1" x="45.99" y="37.96" width="34.02" height="8" rx="3.84" ry="3.84"/><rect class="cls-1" x="50.49" y="29.95" width="25.01" height="8" rx="3.29" ry="3.29"/><path class="cls-1" d="M59.85,22h-.57A2.29,2.29,0,0,0,57,24.23v3.45A2.28,2.28,0,0,0,59.28,30h7.44A2.28,2.28,0,0,0,69,27.68V24.23A2.29,2.29,0,0,0,66.72,22h-.57"/><path class="cls-1" d="M66.5,20.45v-9c0-1.92-7-1.92-7,0v9a3.45,3.45,0,0,0,.35,1.5h6.3A3.45,3.45,0,0,0,66.5,20.45Z"/><path class="cls-1" d="M75.65,56s-2.56,4.47.6,8.32l.25.29A27,27,0,1,1,50.65,64l.15-.2C53.31,60,51,56,51,56Z"/><path class="cls-2" d="M48.16,74.45S37,86.1,48.66,99.14"/></g></svg>