<svg xmlns="http://www.w3.org/2000/svg" xmlns:xlink="http://www.w3.org/1999/xlink" viewBox="0 0 126 126"><defs><style>.cls-1,.cls-2,.cls-5{fill:none;}.cls-2,.cls-4,.cls-5{stroke:#333;stroke-miterlimit:10;}.cls-3{clip-path:url(#clip-path);}.cls-4{fill:#fff;}.cls-5{stroke-linecap:round;stroke-width:0.25px;}</style><clipPath id="clip-path"><path class="cls-1" d="M34.51,43c2.89-9.06,7.21-12.43,7.21-12.43,6.76-2,18.45-5.11,28.28-2.77C95.88,34,111.14,53.1,115.43,65.36c-2,2.59-4,5.59-6.09,8.18a82.32,82.32,0,0,0-73.5-14.86c-.89-3.18-1.77-6.37-2.61-9.57l-.14-.5A47.17,47.17,0,0,1,34.51,43Z"/></clipPath></defs><title>Sushi Social</title><g id="Sushi"><path class="cls-2" d="M34.61,42.67c2.89-8.81,7.11-12.1,7.11-12.1,6.76-2,18.45-5.11,28.28-2.77,25.8,6.16,41.13,25.7,45.48,38-2,2.59-4.09,5.19-6.14,7.77a82.32,82.32,0,0,0-73.5-14.86c-.89-3.18-1.77-6.37-2.61-9.57l-.14-.5A48.72,48.72,0,0,1,34.61,42.67Z"/><g class="cls-3"><path class="cls-4" d="M120.17,46.29S99.46,54.23,96.62,68C96.62,68,95.84,55.28,120.17,46.29Z"/><path class="cls-4" d="M106.46,38.07s-20.23,9.11-22.3,23C84.16,61.11,82.67,48.43,106.46,38.07Z"/><path class="cls-4" d="M89.52,31.4S71.71,44.67,72.68,58.72C72.68,58.72,68.5,46.67,89.52,31.4Z"/><path class="cls-4" d="M73.21,27.05S56.93,42.17,59.42,56C59.42,56,54,44.51,73.21,27.05Z"/><path class="cls-4" d="M58.78,23.75s-17.73,19-13.7,35C45.08,58.7,37.78,45.71,58.78,23.75Z"/></g><path class="cls-2" d="M50.52,80.81l0,13.91C51.25,97.13,61.92,99,75,99c13.51,0,24.46-2,24.46-4.57V80.81"/><ellipse class="cls-2" cx="74.98" cy="80.81" rx="24.46" ry="4.57"/><path class="cls-5" d="M99.21,81.17c-7.25,2-22.54,2.89-31.41,2-7.1-.74-8.92-2.36-4.07-3.63,3.89-1,11.64-1.36,17.32-.78,4.54.47,5.7,1.51,2.6,2.33a38,38,0,0,1-11.08.49c-2.91-.3-3.66-1-1.67-1.48A24.25,24.25,0,0,1,78,79.75"/><path class="cls-2" d="M10.52,71.14l0,13.91c.69,2.41,11.36,4.33,24.42,4.33a105.69,105.69,0,0,0,15.55-1V80.58c2.56-2.87,8.94-3.43,8.94-3.43l0-6"/><ellipse class="cls-2" cx="34.98" cy="71.14" rx="24.46" ry="4.57"/><path class="cls-5" d="M59.21,71.5c-7.25,2-22.54,2.89-31.41,2-7.1-.73-8.92-2.36-4.07-3.63,3.89-1,11.64-1.36,17.32-.77,4.54.47,5.7,1.51,2.6,2.32a38.3,38.3,0,0,1-11.08.5c-2.91-.31-3.66-1-1.67-1.49A24.25,24.25,0,0,1,38,70.08"/><path class="cls-2" d="M33.52,64.68a3,3,0,0,0,1.22,1.85s12-.11,19.93,1.76c6.34,1.5,4.68,3.41,4.68,3.41l.13,5.45,3.81-.48a143.7,143.7,0,0,1,20.5-.19c8.34.62,15.13,2.29,15.65,4.33l.1,1.69c6.33.28,10.47-.35,11.47-2.15,2.3-4.87,4-5.76,1.63-10.78l-3.41,3.87S97.15,62.31,75.52,57.56a83.28,83.28,0,0,0-39.68,1.12l-1.4-4.91A26.38,26.38,0,0,0,33.52,64.68Z"/></g></svg>