<svg xmlns="http://www.w3.org/2000/svg" viewBox="0 0 126 126"><defs><style>.cls-1{fill:none;stroke:#000;stroke-miterlimit:10;}</style></defs><title>Taxi Social </title><g id="Taxi"><path class="cls-1" d="M32.45,96.82v3.85a6.82,6.82,0,0,1-6.8,6.8h0a6.82,6.82,0,0,1-6.8-6.8v-4.6"/><path class="cls-1" d="M18.2,63.83l-5.63-2a3.92,3.92,0,0,1-2.36-5l.31-.91a3.82,3.82,0,0,1,4.86-2.4l5.63,2a3.93,3.93,0,0,1,2.37,5l-.31.91A3.82,3.82,0,0,1,18.2,63.83Z"/><line class="cls-1" x1="13.35" y1="80.81" x2="25.46" y2="59.33"/><path class="cls-1" d="M62.51,80.27H63"/><rect class="cls-1" x="16.71" y="81.42" width="13.2" height="9.23" rx="4.5" ry="4.5"/><path class="cls-1" d="M46.64,27.52c-15.88-.41-17.07,8.78-17.07,8.78l0,.7"/><path class="cls-1" d="M93.55,96.82v3.85a6.82,6.82,0,0,0,6.8,6.8h0a6.82,6.82,0,0,0,6.8-6.8v-4.6"/><path class="cls-1" d="M107.8,63.83l5.63-2a3.92,3.92,0,0,0,2.36-5l-.31-.91a3.82,3.82,0,0,0-4.86-2.4l-5.63,2a3.93,3.93,0,0,0-2.37,5l.31.91A3.82,3.82,0,0,0,107.8,63.83Z"/><rect class="cls-1" x="22.45" y="35.98" width="81.1" height="27.67" rx="11.88" ry="11.88"/><path class="cls-1" d="M79.36,23.08v4.69a4.58,4.58,0,0,1-4.57,4.57H51.21a4.58,4.58,0,0,1-4.57-4.57V23.08a4.58,4.58,0,0,1,4.57-4.57H74.79A4.58,4.58,0,0,1,79.36,23.08Z"/><line class="cls-1" x1="112.65" y1="80.81" x2="100.54" y2="59.33"/><path class="cls-1" d="M63.49,80.27H63"/><rect class="cls-1" x="96.09" y="81.42" width="13.2" height="9.23" rx="4.5" ry="4.5" transform="translate(205.38 172.06) rotate(180)"/><path class="cls-1" d="M79.36,27.52c15.88-.41,17.07,8.78,17.07,8.78l0,.51"/><path class="cls-1" d="M84.05,86v1.19a5.19,5.19,0,0,1-5.18,5.17H47.13A5.19,5.19,0,0,1,42,87.17V86a5.19,5.19,0,0,1,5.18-5.17H78.87A5.19,5.19,0,0,1,84.05,86Z"/><path class="cls-1" d="M98,49.67V50a9,9,0,0,1-8.95,9H37A9,9,0,0,1,28,50v-.28a9,9,0,0,1,9-9H89A9,9,0,0,1,98,49.67Z"/><path class="cls-1" d="M113.41,84.63v2.46A9.87,9.87,0,0,1,103.65,97H22.35a9.87,9.87,0,0,1-9.76-9.93V84.63a9.87,9.87,0,0,1,9.76-9.92S49.78,79.77,63,80.27h0c12.35,0,40.65-5.56,40.65-5.56A9.87,9.87,0,0,1,113.41,84.63Z"/></g></svg>