<svg xmlns="http://www.w3.org/2000/svg" viewBox="0 0 126 126"><defs><style>.cls-1,.cls-2{fill:none;stroke:#000;}.cls-1{stroke-linecap:round;stroke-linejoin:round;}.cls-2{stroke-miterlimit:10;}</style></defs><title>Theatre Social</title><g id="Theatre"><path class="cls-1" d="M91.08,18.8a9.44,9.44,0,0,1,7.69-4.14,9.57,9.57,0,1,1,0,19.14"/><path class="cls-1" d="M47.65,99.53c3.82-.91,15.77-4.21,16-10.21.24-7.26-2-35-7.56-42.65"/><path class="cls-1" d="M91,18.87C89,22,84,35.28,86,37s5.83,4.88,10.82,1.88c2.85-5.07,1.5-5.07,1.5-5.07"/><path class="cls-1" d="M45.8,36.63c6.64,1.42,9.76,3.94,9.76,10.23,0,7.38-2.14,13.61-9.06,15-5.2,1-8-.77-10-1.7-8-3.76-10.35-5.53-9.52-10.34"/><path class="cls-1" d="M40.36,30.85a15,15,0,0,1,4.18,4c5,6.39,5.53,14.4,1.09,17.89C41.56,56,34.74,54.23,29.76,49"/><path class="cls-1" d="M70.37,72.82c-2.64.56-4.2,0-8.39-4.38"/><path class="cls-1" d="M56.06,46.67C58.7,43.92,63.89,53,67.79,58.34c.88,1.22,2.27,2.59,2.58,3.92"/><path class="cls-1" d="M42.51,97.49c1.07-1.4,4.35,1.87,7.52,3.45,3.37,1.68,5.42,4.41,4.58,6.11s-4.26,1.7-7.63,0-6.94-3.79-6.1-5.48"/><path class="cls-1" d="M97.85,36.78c.9-.44,3.06.56,2.39,3.95a1.91,1.91,0,0,1-.7,1.13C97.77,43.19,98.65,45,95.27,45c-3.66,0-6.62-1.33-8.8,1.33a3.44,3.44,0,0,0-.32.47"/><path class="cls-1" d="M81.17,46.47a5.62,5.62,0,0,0,.12-1.27,19.66,19.66,0,0,1,0-4c.34-1.31.83-4.24,4.66-4.19"/><path class="cls-1" d="M70,60.77s5.91-4.93,9.19-9.93"/><path class="cls-1" d="M31.7,57.69s-6,1.7-7.28,4.17"/><path class="cls-1" d="M48.25,61.37c4.43,7.66,9.12,34.78,9.12,34.78"/><circle cx="44.63" cy="70.72" r="2.11"/><circle cx="46.5" cy="80.1" r="2.11"/><circle cx="48.66" cy="89.33" r="2.11"/><path class="cls-1" d="M78.8,51.38A5.57,5.57,0,0,0,80,48c0-2.08,4.34-1.49,4.34-1.49s4.89.39,3.33,2.93c-1.35,2.2-6.23,9.16-7.48,10.94a8.16,8.16,0,0,0-.53.9c-2.85,5.91-6.16,11.34-9.27,11.58"/><path class="cls-2" d="M21.53,29.57s-5.06,5.66-2.6,10.54,2,5,1.11,7.27l9,3s.34-.57.75-1.45"/><path class="cls-2" d="M29.79,48.93a13.48,13.48,0,0,0,1-7.75c-.75-3.26,2.35-6.27,2.35-6.27"/><path class="cls-2" d="M33.12,34.91s3.88-3.65,7.24-4.06c.84-.1,5.53,2,5.53,2s.45.12,4.29-.55a.81.81,0,0,0,.3-1.47l-6.32-4s-3-3.46-4.27-3.69S31,18.31,21.53,29.57"/><path class="cls-1" d="M33.5,83.78c.15,2.39,2.4,6,4,7.3,4.18,3.34,6.34,7.59,4.82,9.48S36.17,101.29,32,98a60.72,60.72,0,0,1-5.66-5.77"/><path class="cls-1" d="M26.32,92.18c-2.28-2.3-4.22-7.66-4.79-14-.79-8.69,1.24-16,4.54-16.28s6.6,6.51,7.39,15.2a37.73,37.73,0,0,1,0,6.71"/></g></svg>