<svg xmlns="http://www.w3.org/2000/svg" viewBox="0 0 126 126"><defs><style>.cls-1,.cls-2,.cls-3{fill:none;stroke:#000;}.cls-1,.cls-2{stroke-linecap:round;}.cls-1,.cls-3{stroke-miterlimit:10;}.cls-2{stroke-linejoin:round;}</style></defs><title>Theme Park Social</title><g id="Theme_Parkvvv" data-name="Theme Parkvvv"><path class="cls-1" d="M25.38,79.36S15.14,90.82,11.05,96.56"/><path class="cls-1" d="M34.31,79.64S22.86,92.56,18.77,98.29"/><path class="cls-2" d="M46.26,55.61A23.74,23.74,0,0,0,22.51,79.36H70A23.75,23.75,0,0,0,46.26,55.61Z"/><path class="cls-2" d="M70.14,79.36s29.07-27.74,41.35-30.19c-3.56-20.28-21.77-19.84-22.65-19.76"/><path class="cls-3" d="M69.56,42.68S79,49.06,73.28,57.25"/><ellipse class="cls-3" cx="83.11" cy="30.23" rx="4.91" ry="5.73"/><path class="cls-3" d="M63.32,42a4.92,4.92,0,1,1,8.29-4.16,6.26,6.26,0,0,1,0,.63A4.92,4.92,0,0,1,63.32,42"/><path class="cls-3" d="M93.32,47.92c.4-1.19.16-10.21-8.12-12.22-2.16.94-4.76-.4-4.76-.4a28.5,28.5,0,0,0-8.79,2.3"/><path class="cls-3" d="M73.1,37a68.34,68.34,0,0,0,6.15-3.15"/><path class="cls-2" d="M86.32,35.4c5-.88,11.23,2.34,14.17,9.07L73.28,58.07C67.55,48.24,52,50.7,52,50.7s4.33-10.4,11.48-8.61"/><path class="cls-1" d="M60.59,79.36s-12.87,15-18,22.52"/><path class="cls-1" d="M68.78,79.36s-14,16.1-19.65,24.16"/><line class="cls-2" x1="27.45" y1="87.55" x2="53.63" y2="87.55"/><line class="cls-2" x1="21.12" y1="95.74" x2="46.67" y2="95.74"/><path class="cls-1" d="M57.73,105.56c11.83-14.94,36-45.85,55.68-50.77"/><path class="cls-2" d="M52,50.7l-12.89,6s-2.18.81-2.93,1.16-2.42,1.32-2.42,1.32"/></g></svg>