<!-- Generator: Adobe Illustrator 22.1.0, SVG Export Plug-In  -->
<svg version="1.1"
	 xmlns="http://www.w3.org/2000/svg" xmlns:xlink="http://www.w3.org/1999/xlink" xmlns:a="http://ns.adobe.com/AdobeSVGViewerExtensions/3.0/"
	 x="0px" y="0px" width="2rem" height="3rem" viewBox="0 0 94.1 97.7" style="enable-background:new 0 0 94.1 97.7;"
	 xml:space="preserve">
<style type="text/css">
	.st0{fill:none;stroke:#000000;stroke-width:4;stroke-linecap:round;stroke-linejoin:round;stroke-miterlimit:10;}
</style>
<defs>
</defs>
<path class="st0" d="M74.8,6.1C76.6,3.7,79.3,2,82.5,2c5.3,0,9.6,4.3,9.6,9.6s-4.3,9.6-9.6,9.6 M31.4,86.9c3.8-0.9,15.8-4.2,16-10.2
	c0.2-7.3-2-35-7.6-42.6 M74.8,6.2c-2,3.2-7.1,16.4-5.1,18.1c2,1.7,5.8,4.9,10.8,1.9c2.8-5.1,1.5-5.1,1.5-5.1 M10.8,37.2
	c-0.8,4.8,1.5,6.6,9.5,10.3c2,0.9,4.8,2.7,10,1.7c6.9-1.4,9.1-7.6,9.1-15c0-6.3-3.1-8.8-9.8-10.2 M13.5,36.3c5,5.3,11.8,7,15.9,3.8
	c4.4-3.5,3.9-11.5-1.1-17.9c-1.5-1.9-2.4-2.9-4.2-4 M45.7,55.8c4.2,4.3,5.8,4.9,8.4,4.4 M54.1,49.6c-0.3-1.3-1.7-2.7-2.6-3.9
	c-3.9-5.4-9.1-14.4-11.7-11.7 M24.6,88.9c-0.8,1.7,2.7,3.8,6.1,5.5s6.8,1.7,7.6,0c0.8-1.7-1.2-4.4-4.6-6.1c-3.2-1.6-6.5-4.9-7.5-3.4
	 M69.9,34.2c0.1-0.2,0.2-0.4,0.3-0.5c2.2-2.7,5.1-1.3,8.8-1.3c3.4,0,2.5-1.8,4.3-3.2c0.4-0.3,0.6-0.7,0.7-1.1
	c0.7-3.4-1.5-4.4-2.4-3.9 M81.6,24.1 M69.7,24.3c-3.8,0-4.3,2.9-4.7,4.2c-0.2,0.7-0.1,1.7,0,4c0,0.4,0,0.8-0.1,1.3 M53.7,48.1
	c0,0,5.9-4.9,9.2-9.9 M15.4,45c0,0-6,1.7-7.3,4.2 M41.1,83.5c0,0-4.7-27.1-9.1-34.8 M30.3,58.9c0.4-1.1-0.1-2.3-1.2-2.7
	c-1.1-0.4-2.3,0.1-2.7,1.2s0.1,2.3,1.2,2.7C28.7,60.4,29.9,59.9,30.3,58.9z M32.2,68.2c0.4-1.1-0.1-2.3-1.2-2.7
	c-1.1-0.4-2.3,0.1-2.7,1.2c-0.4,1.1,0.1,2.3,1.2,2.7C30.5,69.8,31.8,69.3,32.2,68.2z M34.4,77.5c0.4-1.1-0.1-2.3-1.2-2.7
	s-2.3,0.1-2.7,1.2c-0.4,1.1,0.1,2.3,1.2,2.7S33.9,78.5,34.4,77.5z M54.1,60.2c3.1-0.2,6.4-5.7,9.3-11.6c0.2-0.3,0.3-0.6,0.5-0.9
	c1.3-1.8,6.1-8.7,7.5-10.9c1.6-2.5-3.3-2.9-3.3-2.9s-4.3-0.6-4.3,1.5c0,2.1-1.2,3.4-1.2,3.4 M5.3,16.9c0,0-5.1,5.7-2.6,10.5
	s2,5.1,1.1,7.3l9,3c0,0,0.3-0.6,0.8-1.5 M16.9,22.3c0,0-3.1,3-2.3,6.3c0.6,2.4,0,5.7-1,7.8 M16.9,22.3c0,0,3.9-3.7,7.2-4.1
	c0.8-0.1,5.5,2,5.5,2s0.5,0.1,4.3-0.6c0.7-0.1,0.9-1.1,0.3-1.5l-6.3-4c0,0-3-3.5-4.3-3.7c-1.3-0.2-8.9-4.8-18.4,6.4 M16.9,22.3
	 M10.1,79.5c1.3,1.4,3.8,4.3,5.7,5.8c4.2,3.3,8.8,4.5,10.3,2.6c1.5-1.9-0.6-6.1-4.8-9.5c-1.6-1.3-3.8-4.9-4-7.3 M17.3,71.1
	c0.2-2.1,0.2-4.3,0-6.7c-0.8-8.7-4.1-15.5-7.4-15.2c-3.3,0.3-5.3,7.6-4.5,16.3c0.6,6.4,2.5,11.7,4.8,14"/>
</svg>
